<?xml version="1.0" encoding="utf-8"?>
<!-- Generator: Adobe Illustrator 17.1.0, SVG Export Plug-In . SVG Version: 6.00 Build 0)  -->
<!DOCTYPE svg PUBLIC "-//W3C//DTD SVG 1.1//EN" "http://www.w3.org/Graphics/SVG/1.1/DTD/svg11.dtd">
<svg version="1.1" id="Layer_1" xmlns="http://www.w3.org/2000/svg" xmlns:xlink="http://www.w3.org/1999/xlink" x="0px" y="0px"
	 viewBox="0 0 113.043 90.296" enable-background="new 0 0 113.043 90.296" xml:space="preserve">
<g>
	<path fill="#E6E7E8" d="M0,76.354c28.253,1.633,69.693,1.945,89.129-15.126c9.487-8.333,10.572-19.199,10.93-31.069
		c0.133-4.363,1.471-14.854,3.134-19.321c-4.161,1.253-14.888,2.557-19.211,2.725c-11.825,0.473-23.228,1.027-32.224,10.018
		c-4.801,4.812-8.315,14.889-9.423,26.379c-0.572,4.143-0.318,9.856-0.364,12.453c5.759-0.473,11.605-3.122,16.978-6.7
		c6.538-4.363,13.244-10.907,22.275-27.572l2.032,1.24c-6.706,16.984-13.141,26.424-21.813,32.876
		c-6.706,4.986-13.452,7.006-19.632,7.987c-7.629,0.854-14.796,0.265-14.796,0.265v-7.473c0-19.107,5.298-35.801,14.167-44.671
		C54.32,5.223,69.134,4.687,82.198,4.127c16.684-0.71,30.845-3.214,30.845-3.214s-2.378,11.639-3.018,30.885
		c-0.449,13.227-0.848,28.208-14.283,41.215c-15.217,14.744-51.96,17.283-75.441,17.283c-10.283,0-18.022-0.485-20.301-0.652V76.354
		z"/>
</g>
</svg>
