<?xml version="1.0" encoding="utf-8"?>
<!-- Generator: Adobe Illustrator 17.1.0, SVG Export Plug-In . SVG Version: 6.00 Build 0)  -->
<!DOCTYPE svg PUBLIC "-//W3C//DTD SVG 1.1//EN" "http://www.w3.org/Graphics/SVG/1.1/DTD/svg11.dtd">
<svg version="1.1" id="Layer_1" xmlns="http://www.w3.org/2000/svg" xmlns:xlink="http://www.w3.org/1999/xlink" x="0px" y="0px"
	 viewBox="0 0 50 50" enable-background="new 0 0 50 50" xml:space="preserve">
<g>
	<g>
		<path fill="#99999A" d="M49,1v48H1V1H49 M50.2-0.2H49H1h-1.2V1v48v1.2H1h48h1.2V49V1V-0.2L50.2-0.2z"/>
	</g>
	<g>
		<path fill="#99999A" d="M2.1,2.1v45.7h45.7V2.1H2.1z M22.7,19.4c5.5,0.3,13.6,0.4,17.3-2.9c1.8-1.6,2.1-3.7,2.1-6
			c0-0.8,0.3-2.9,0.6-3.8c-0.8,0.2-2.9,0.5-3.7,0.5c-2.3,0.1-4.5,0.2-6.3,1.9c-0.9,0.9-1.6,2.9-1.8,5.1c-0.1,0.8-0.1,1.9-0.1,2.4
			c1.1-0.1,2.3-0.6,3.3-1.3c1.3-0.8,2.6-2.1,4.3-5.4l0.4,0.2c-1.3,3.3-2.6,5.1-4.2,6.4c-1.3,1-2.6,1.4-3.8,1.6
			c-1.5,0.2-2.9,0.1-2.9,0.1v-1.5c0-3.7,1-7,2.8-8.7c2.6-2.6,5.4-2.7,8-2.8c3.2-0.1,6-0.6,6-0.6s-0.5,2.3-0.6,6
			c-0.1,2.6-0.2,5.5-2.8,8c-3,2.9-10.1,3.4-14.7,3.4c-2,0-3.5-0.1-3.9-0.1V19.4z M10.7,5.7c2.6,0.1,5.5,0.2,8,2.8
			c2.9,3,3.4,10.1,3.4,14.7c0,2-0.1,3.5-0.1,3.9h-2.6c0.3-5.5,0.4-13.6-2.9-17.3c-1.6-1.8-3.7-2.1-6-2.1C9.5,7.6,7.5,7.4,6.6,7
			c0.2,0.8,0.5,2.9,0.5,3.7c0.1,2.3,0.2,4.5,1.9,6.3c0.9,0.9,2.9,1.6,5.1,1.8c0.8,0.1,1.9,0.1,2.4,0.1c-0.1-1.1-0.6-2.3-1.3-3.3
			c-0.8-1.3-2.1-2.6-5.4-4.3l0.2-0.4c3.3,1.3,5.1,2.6,6.4,4.2c1,1.3,1.4,2.6,1.6,3.8c0.2,1.5,0.1,2.9,0.1,2.9h-1.5
			c-3.7,0-7-1-8.7-2.8c-2.6-2.6-2.7-5.4-2.8-8c-0.1-3.2-0.6-6-0.6-6S6.9,5.6,10.7,5.7z M27.2,30.6c-5.5-0.3-13.6-0.4-17.3,2.9
			c-1.8,1.6-2.1,3.7-2.1,6c0,0.8-0.3,2.9-0.6,3.8c0.8-0.2,2.9-0.5,3.7-0.5c2.3-0.1,4.5-0.2,6.3-1.9c0.9-0.9,1.6-2.9,1.8-5.1
			c0.1-0.8,0.1-1.9,0.1-2.4c-1.1,0.1-2.3,0.6-3.3,1.3c-1.3,0.8-2.6,2.1-4.3,5.4l-0.4-0.2c1.3-3.3,2.6-5.1,4.2-6.4
			c1.3-1,2.6-1.4,3.8-1.6c1.5-0.2,2.9-0.1,2.9-0.1v1.5c0,3.7-1,7-2.8,8.7c-2.6,2.6-5.4,2.7-8,2.8c-3.2,0.1-6,0.6-6,0.6
			s0.5-2.3,0.6-6c0.1-2.6,0.2-5.5,2.8-8c3-2.9,10.1-3.4,14.7-3.4c2,0,3.5,0.1,4,0.1V30.6z M39.3,44.2c-2.6-0.1-5.5-0.2-8-2.8
			c-2.9-3-3.4-10.1-3.4-14.7c0-2,0.1-3.5,0.1-3.9h2.6c-0.3,5.5-0.4,13.6,2.9,17.3c1.6,1.8,3.7,2.1,6,2.1c0.8,0,2.9,0.3,3.8,0.6
			c-0.2-0.8-0.5-2.9-0.5-3.7c-0.1-2.3-0.2-4.5-1.9-6.3C40,32,38,31.3,35.8,31.1C35,31,33.9,31,33.4,31c0.1,1.1,0.6,2.3,1.3,3.3
			c0.8,1.3,2.1,2.6,5.4,4.3L39.8,39c-3.3-1.3-5.1-2.6-6.4-4.2c-1-1.3-1.4-2.6-1.6-3.8c-0.2-1.5-0.1-2.9-0.1-2.9h1.5
			c3.7,0,7,1,8.7,2.8c2.6,2.6,2.7,5.4,2.8,8c0.1,3.2,0.6,6,0.6,6S43.1,44.4,39.3,44.2z"/>
	</g>
</g>
</svg>
