<?xml version="1.0" encoding="utf-8"?>
<!-- Generator: Adobe Illustrator 17.1.0, SVG Export Plug-In . SVG Version: 6.00 Build 0)  -->
<!DOCTYPE svg PUBLIC "-//W3C//DTD SVG 1.1//EN" "http://www.w3.org/Graphics/SVG/1.1/DTD/svg11.dtd">
<svg version="1.1" id="Layer_1" xmlns="http://www.w3.org/2000/svg" xmlns:xlink="http://www.w3.org/1999/xlink" x="0px" y="0px"
	 viewBox="0 0 100 100" enable-background="new 0 0 100 100" xml:space="preserve">
<g>
	<path fill="#E37929" d="M0,77.6c25,1.4,61.7,1.7,78.8-13.4c8.4-7.4,9.4-17,9.7-27.5c0.1-3.9,1.3-13.1,2.8-17.1
		c-3.7,1.1-13.2,2.3-17,2.4c-10.5,0.4-20.5,0.9-28.5,8.9c-4.2,4.3-7.4,13.2-8.3,23.3c-0.5,3.7-0.3,8.7-0.3,11
		c5.1-0.4,10.3-2.8,15-5.9c5.8-3.9,11.7-9.6,19.7-24.4l1.8,1.1c-5.9,15-11.6,23.4-19.3,29.1c-5.9,4.4-11.9,6.2-17.4,7.1
		c-6.7,0.8-13.1,0.2-13.1,0.2v-6.6c0-16.9,4.7-31.7,12.5-39.5c11.6-11.6,24.7-12.1,36.3-12.6c14.8-0.6,27.3-2.8,27.3-2.8
		s-2.1,10.3-2.7,27.3c-0.4,11.7-0.8,25-12.6,36.5c-13.5,13-46,15.3-66.7,15.3c-9.1,0-15.9-0.4-18-0.6C0,89.4,0,77.6,0,77.6z"/>
</g>
</svg>
