<?xml version="1.0" encoding="utf-8"?>
<!-- Generator: Adobe Illustrator 17.1.0, SVG Export Plug-In . SVG Version: 6.00 Build 0)  -->
<!DOCTYPE svg PUBLIC "-//W3C//DTD SVG 1.1//EN" "http://www.w3.org/Graphics/SVG/1.1/DTD/svg11.dtd">
<svg version="1.1" xmlns="http://www.w3.org/2000/svg" xmlns:xlink="http://www.w3.org/1999/xlink" x="0px" y="0px"
	 viewBox="0 0 347.429 45.565" enable-background="new 0 0 347.429 45.565" xml:space="preserve">
<g id="Layer_2">
</g>
<g id="Layer_1">
	<rect x="56.711" y="31.358" fill="none" width="276.544" height="14.277"/>
	<text transform="matrix(1 0 0 1 56.7125 39.1602)" fill="#FFFFFF" font-family="'Corbel-Italic'" font-size="11.035">A wholly owned subsidiary of Daves and Associates, LLC.</text>
	<g>
		<g>
			<g>
				<path fill="#FFFFFF" d="M42.87,1.462v41.891H0.979V1.462H42.87 M44.075,0.257H42.87H0.979h-1.205v1.205v41.891v1.205h1.205
					H42.87h1.205v-1.205V1.462V0.257L44.075,0.257z"/>
			</g>
			<g>
				<path fill="#FFFFFF" d="M1.977,2.46v39.897h39.896V2.46H1.977z M19.885,17.545c4.796,0.277,11.831,0.33,15.131-2.568
					c1.611-1.415,1.795-3.259,1.855-5.274c0.023-0.741,0.25-2.522,0.532-3.28c-0.706,0.213-2.527,0.434-3.261,0.463
					c-2.007,0.08-3.943,0.174-5.47,1.701c-0.815,0.817-1.412,2.528-1.6,4.478c-0.097,0.703-0.054,1.673-0.062,2.114
					c0.978-0.08,1.97-0.53,2.882-1.137c1.11-0.741,2.248-1.852,3.782-4.681l0.345,0.211c-1.138,2.883-2.231,4.486-3.703,5.581
					c-1.138,0.846-2.284,1.189-3.333,1.356c-1.295,0.145-2.512,0.045-2.512,0.045v-1.269c0-3.244,0.899-6.078,2.405-7.584
					c2.231-2.231,4.746-2.322,6.963-2.417c2.832-0.12,5.236-0.546,5.236-0.546s-0.404,1.976-0.512,5.243
					c-0.076,2.245-0.144,4.789-2.425,6.997c-2.583,2.503-8.821,2.934-12.807,2.934c-1.746,0-3.06-0.082-3.446-0.111V17.545z
					 M9.428,5.569c2.244,0.075,4.788,0.145,6.997,2.425c2.503,2.583,2.933,8.819,2.933,12.807c0,1.745-0.081,3.06-0.11,3.446h-2.257
					c0.278-4.797,0.331-11.832-2.567-15.131C13.01,7.506,11.165,7.321,9.149,7.26c-0.74-0.022-2.521-0.249-3.278-0.531
					c0.212,0.705,0.433,2.528,0.461,3.26c0.079,2.008,0.175,3.944,1.702,5.472c0.815,0.815,2.526,1.411,4.476,1.599
					c0.703,0.098,1.674,0.054,2.115,0.063c-0.08-0.98-0.531-1.971-1.137-2.882c-0.741-1.111-1.852-2.249-4.681-3.783l0.211-0.344
					c2.883,1.136,4.485,2.23,5.58,3.702c0.846,1.136,1.19,2.284,1.357,3.332C16.099,18.446,16,19.661,16,19.661h-1.269
					c-3.244,0-6.078-0.899-7.585-2.406c-2.23-2.231-2.321-4.745-2.416-6.962C4.61,7.461,4.184,5.057,4.184,5.057
					S6.162,5.459,9.428,5.569z M23.888,27.271c-4.797-0.278-11.832-0.33-15.131,2.567c-1.611,1.414-1.795,3.259-1.855,5.276
					c-0.024,0.739-0.25,2.52-0.532,3.277c0.705-0.212,2.527-0.432,3.26-0.461c2.007-0.079,3.944-0.174,5.471-1.702
					c0.815-0.814,1.411-2.525,1.6-4.475c0.097-0.705,0.053-1.674,0.062-2.114c-0.979,0.078-1.971,0.529-2.882,1.137
					c-1.111,0.741-2.248,1.851-3.783,4.682l-0.344-0.213c1.137-2.883,2.231-4.485,3.703-5.58c1.137-0.846,2.283-1.191,3.332-1.357
					c1.296-0.145,2.513-0.045,2.513-0.045v1.269c0,3.244-0.899,6.079-2.406,7.586c-2.23,2.229-4.745,2.322-6.963,2.416
					c-2.832,0.12-5.235,0.547-5.235,0.547S5.1,38.101,5.21,34.833c0.074-2.244,0.144-4.787,2.425-6.995
					c2.583-2.504,8.82-2.933,12.806-2.933c1.745,0,3.06,0.08,3.447,0.11V27.271z M34.42,39.199
					c-2.245-0.075-4.788-0.145-6.996-2.426c-2.503-2.583-2.934-8.821-2.934-12.806c0-1.745,0.082-3.06,0.11-3.446h2.257
					c-0.277,4.796-0.331,11.831,2.567,15.131c1.415,1.609,3.259,1.795,5.276,1.855c0.741,0.022,2.521,0.248,3.279,0.531
					c-0.212-0.704-0.433-2.527-0.462-3.26c-0.079-2.007-0.173-3.943-1.701-5.471c-0.816-0.816-2.527-1.412-4.477-1.599
					c-0.703-0.099-1.673-0.055-2.114-0.063c0.079,0.979,0.53,1.971,1.137,2.882c0.74,1.111,1.852,2.247,4.681,3.783l-0.212,0.344
					c-2.882-1.137-4.484-2.231-5.58-3.703c-0.846-1.137-1.19-2.283-1.357-3.332c-0.144-1.296-0.044-2.514-0.044-2.514h1.269
					c3.243,0,6.078,0.9,7.585,2.406c2.229,2.231,2.32,4.747,2.416,6.965c0.121,2.832,0.546,5.235,0.546,5.235
					S37.688,39.308,34.42,39.199z"/>
			</g>
		</g>
		<g>
			<g>
				<g>
					<path fill="#FFFFFF" d="M150.731,17.667c-0.751,0.389-2.33,0.777-4.32,0.777c-4.609,0-8.057-2.914-8.057-8.301
						c0-5.146,3.47-8.593,8.544-8.593c2.013,0,3.325,0.437,3.882,0.729l-0.534,1.722c-0.776-0.388-1.917-0.68-3.277-0.68
						c-3.835,0-6.384,2.452-6.384,6.748c0,4.029,2.307,6.577,6.262,6.577c1.312,0,2.623-0.266,3.471-0.68L150.731,17.667z"/>
					<path fill="#FFFFFF" d="M166.118,9.827c0,5.607-3.423,8.617-7.597,8.617c-4.345,0-7.355-3.374-7.355-8.325
						c0-5.194,3.204-8.592,7.574-8.592C163.229,1.527,166.118,4.949,166.118,9.827z M153.4,10.07c0,3.519,1.892,6.651,5.241,6.651
						c3.35,0,5.242-3.083,5.242-6.796c0-3.277-1.698-6.675-5.218-6.675C155.148,3.249,153.4,6.502,153.4,10.07z"/>
					<path fill="#FFFFFF" d="M168.553,18.176V1.818h2.33l5.218,8.276c1.19,1.917,2.16,3.641,2.914,5.315l0.073-0.024
						c-0.194-2.185-0.244-4.175-0.244-6.723V1.818h1.992v16.359h-2.136l-5.193-8.301c-1.141-1.82-2.235-3.689-3.035-5.461
						l-0.073,0.023c0.121,2.063,0.147,4.029,0.147,6.748v6.99H168.553z"/>
					<path fill="#FFFFFF" d="M183.676,15.604c0.947,0.606,2.307,1.068,3.763,1.068c2.16,0,3.423-1.141,3.423-2.791
						c0-1.505-0.875-2.402-3.082-3.228c-2.672-0.971-4.322-2.379-4.322-4.66c0-2.549,2.112-4.442,5.292-4.442
						c1.651,0,2.888,0.388,3.591,0.801l-0.583,1.723c-0.508-0.315-1.602-0.777-3.083-0.777c-2.233,0-3.082,1.334-3.082,2.451
						c0,1.53,0.996,2.283,3.254,3.156c2.767,1.068,4.151,2.403,4.151,4.805c0,2.525-1.847,4.734-5.705,4.734
						c-1.578,0-3.301-0.486-4.174-1.068L183.676,15.604z"/>
					<path fill="#FFFFFF" d="M197.119,1.818v9.708c0,3.641,1.627,5.195,3.81,5.195c2.404,0,3.982-1.603,3.982-5.195V1.818h2.136
						v9.563c0,5.024-2.647,7.063-6.19,7.063c-3.35,0-5.874-1.893-5.874-6.991V1.818H197.119z"/>
					<path fill="#FFFFFF" d="M210.256,1.818h2.135v14.586h6.991v1.772h-9.126V1.818z"/>
					<path fill="#FFFFFF" d="M222.616,3.614h-4.975V1.818h12.111v1.796h-4.999v14.563h-2.137V3.614z"/>
					<path fill="#FFFFFF" d="M233.41,1.818v16.359h-2.136V1.818H233.41z"/>
					<path fill="#FFFFFF" d="M236.668,18.176V1.818h2.328l5.22,8.276c1.188,1.917,2.158,3.641,2.914,5.315l0.072-0.024
						c-0.194-2.185-0.243-4.175-0.243-6.723V1.818h1.991v16.359h-2.137l-5.192-8.301c-1.142-1.82-2.234-3.689-3.034-5.461
						l-0.074,0.023c0.121,2.063,0.146,4.029,0.146,6.748v6.99H236.668z"/>
					<path fill="#FFFFFF" d="M264.77,17.448c-0.947,0.364-2.841,0.897-5.049,0.897c-2.476,0-4.514-0.631-6.117-2.159
						c-1.407-1.36-2.28-3.544-2.28-6.093c0-4.878,3.373-8.446,8.859-8.446c1.892,0,3.397,0.411,4.1,0.751l-0.533,1.724
						c-0.874-0.412-1.966-0.704-3.616-0.704c-3.98,0-6.577,2.476-6.577,6.577c0,4.15,2.474,6.601,6.311,6.601
						c1.382,0,2.33-0.194,2.815-0.437v-4.877h-3.301v-1.7h5.389V17.448z"/>
					<path fill="#FFFFFF" d="M285.592,17.448c-0.946,0.364-2.841,0.897-5.05,0.897c-2.474,0-4.514-0.631-6.115-2.159
						c-1.408-1.36-2.281-3.544-2.281-6.093c0-4.878,3.374-8.446,8.858-8.446c1.894,0,3.397,0.411,4.101,0.751l-0.534,1.724
						c-0.873-0.412-1.964-0.704-3.615-0.704c-3.981,0-6.579,2.476-6.579,6.577c0,4.15,2.476,6.601,6.313,6.601
						c1.382,0,2.328-0.194,2.815-0.437v-4.877h-3.301v-1.7h5.389V17.448z"/>
					<path fill="#FFFFFF" d="M288.473,2.036c1.069-0.194,2.621-0.34,4.053-0.34c2.257,0,3.738,0.437,4.733,1.335
						c0.802,0.728,1.287,1.844,1.287,3.131c0,2.136-1.36,3.568-3.057,4.15c0,0-0.598,0.216-0.959,0.353
						c0.067,0.159,4.599,7.511,4.599,7.511h-2.185c0,0-3.148-5.14-4.368-7.088h-1.991v7.088h-2.111V2.036z M290.584,9.488h2.16
						c2.257,0,3.689-1.238,3.689-3.107c0-2.111-1.529-3.033-3.762-3.033c-1.021,0-1.722,0.073-2.088,0.171V9.488z"/>
					<path fill="#FFFFFF" d="M315.144,9.827c0,5.607-3.421,8.617-7.597,8.617c-4.343,0-7.353-3.374-7.353-8.325
						c0-5.194,3.203-8.592,7.572-8.592C312.255,1.527,315.144,4.949,315.144,9.827z M302.426,10.07c0,3.519,1.894,6.651,5.242,6.651
						c3.35,0,5.243-3.083,5.243-6.796c0-3.277-1.7-6.675-5.218-6.675C304.173,3.249,302.426,6.502,302.426,10.07z"/>
					<path fill="#FFFFFF" d="M319.603,1.818v9.708c0,3.641,1.625,5.195,3.811,5.195c2.403,0,3.979-1.603,3.979-5.195V1.818h2.136
						v9.563c0,5.024-2.645,7.063-6.188,7.063c-3.349,0-5.874-1.893-5.874-6.991V1.818H319.603z"/>
					<path fill="#FFFFFF" d="M332.752,2.012c1.018-0.17,2.354-0.316,4.053-0.316c2.086,0,3.615,0.485,4.587,1.359
						c0.874,0.778,1.433,1.966,1.433,3.423c0,1.479-0.437,2.645-1.263,3.494c-1.142,1.189-2.938,1.796-5.001,1.796
						c-0.631,0-1.213-0.024-1.7-0.145v6.553h-2.109V2.012z M334.862,9.9c0.462,0.12,1.044,0.169,1.75,0.169
						c2.548,0,4.102-1.262,4.102-3.471c0-2.184-1.554-3.227-3.861-3.227c-0.922,0-1.623,0.072-1.991,0.17V9.9z"/>
				</g>
				<line fill="#FFFFFF" stroke="#F68A33" stroke-width="1.26" x1="58.269" y1="23.064" x2="133.738" y2="23.064"/>
				<line fill="#FFFFFF" stroke="#FFFFFF" stroke-width="1.26" x1="136.731" y1="23.064" x2="347.979" y2="23.064"/>
				<g>
					<path fill="#F68A33" d="M58.765,2.06c0.923-0.217,2.402-0.363,3.859-0.363c2.111,0,3.47,0.363,4.465,1.19
						c0.849,0.631,1.383,1.601,1.383,2.887c0,1.602-1.068,2.985-2.767,3.592v0.073c1.554,0.364,3.373,1.65,3.373,4.077
						c0,1.408-0.557,2.5-1.407,3.276c-1.116,1.044-2.96,1.53-5.63,1.53c-1.457,0-2.574-0.098-3.277-0.194V2.06z M60.876,8.759h1.917
						c2.209,0,3.519-1.189,3.519-2.767c0-1.893-1.431-2.671-3.567-2.671c-0.972,0-1.529,0.075-1.869,0.147V8.759z M60.876,16.575
						c0.437,0.072,1.019,0.097,1.772,0.097c2.184,0,4.199-0.801,4.199-3.179c0-2.208-1.918-3.156-4.223-3.156h-1.748V16.575z"/>
					<path fill="#F68A33" d="M71.538,1.818h2.135v14.586h6.991v1.772h-9.126V1.818z"/>
					<path fill="#F68A33" d="M95.914,9.827c0,5.607-3.422,8.617-7.597,8.617c-4.344,0-7.353-3.374-7.353-8.325
						c0-5.194,3.203-8.592,7.572-8.592C93.025,1.527,95.914,4.949,95.914,9.827z M83.195,10.07c0,3.519,1.895,6.651,5.243,6.651
						c3.35,0,5.242-3.083,5.242-6.796c0-3.277-1.698-6.675-5.218-6.675C84.943,3.249,83.195,6.502,83.195,10.07z"/>
					<path fill="#F68A33" d="M112.39,9.827c0,5.607-3.423,8.617-7.596,8.617c-4.345,0-7.355-3.374-7.355-8.325
						c0-5.194,3.204-8.592,7.574-8.592C109.502,1.527,112.39,4.949,112.39,9.827z M99.672,10.07c0,3.519,1.893,6.651,5.243,6.651
						c3.349,0,5.241-3.083,5.241-6.796c0-3.277-1.699-6.675-5.219-6.675C101.419,3.249,99.672,6.502,99.672,10.07z"/>
					<path fill="#F68A33" d="M128.138,10.992c-0.121-2.282,0-5.049,0-7.063l0,0c-0.582,1.894-1.237,3.957-2.063,6.214l-2.888,7.936
						h-1.602l-2.67-7.79c-0.776-2.332-1.407-4.418-1.869-6.36l0,0c-0.049,2.04,0.147,4.757,0,7.233v7.014h-1.675V1.818h2.695
						l2.791,7.913c0.679,2.014,1.213,3.81,1.651,5.509h0.047c0.438-1.651,1.02-3.445,1.748-5.509l2.914-7.913h2.694v16.359h-1.772
						V10.992z"/>
				</g>
			</g>
		</g>
	</g>
</g>
</svg>
