<?xml version="1.0" encoding="utf-8"?>
<!-- Generator: Adobe Illustrator 17.1.0, SVG Export Plug-In . SVG Version: 6.00 Build 0)  -->
<!DOCTYPE svg PUBLIC "-//W3C//DTD SVG 1.1//EN" "http://www.w3.org/Graphics/SVG/1.1/DTD/svg11.dtd">
<svg version="1.1" id="Layer_1" xmlns="http://www.w3.org/2000/svg" xmlns:xlink="http://www.w3.org/1999/xlink" x="0px" y="0px"
	 viewBox="0 0 44.1 44.2" enable-background="new 0 0 44.1 44.2" xml:space="preserve">
<g>
	<g>
		<path fill="#99999A" d="M42.9,1.2V43H1.2V1.2H42.9 M44.1,0h-1.2H1.2h-1.2v1.2V43v1.2h1.2h41.8h1.2V43V1.2V0L44.1,0z"/>
	</g>
	<g>
		<path fill="#99999A" d="M2.1,2.2V42h39.8V2.2H2.1z M20,17.2c4.8,0.3,11.8,0.3,15.1-2.6c1.6-1.4,1.8-3.2,1.8-5.3
			c0-0.7,0.2-2.5,0.5-3.3c-0.7,0.2-2.5,0.4-3.3,0.5c-2,0.1-3.9,0.2-5.5,1.7c-0.8,0.8-1.4,2.5-1.6,4.5c-0.1,0.7-0.1,1.7-0.1,2.1
			c1-0.1,2-0.5,2.9-1.1c1.1-0.7,2.2-1.8,3.8-4.7l0.3,0.2c-1.1,2.9-2.2,4.5-3.7,5.6c-1.1,0.8-2.3,1.2-3.3,1.4c-1.3,0.1-2.5,0-2.5,0
			V15c0-3.2,0.9-6.1,2.4-7.6c2.2-2.2,4.7-2.3,6.9-2.4c2.8-0.1,5.2-0.5,5.2-0.5s-0.4,2-0.5,5.2c-0.1,2.2-0.1,4.8-2.4,7
			c-2.6,2.5-8.8,2.9-12.8,2.9c-1.7,0-3-0.1-3.4-0.1V17.2z M9.6,5.3c2.2,0.1,4.8,0.1,7,2.4c2.5,2.6,2.9,8.8,2.9,12.8
			c0,1.7-0.1,3-0.1,3.4h-2.2c0.3-4.8,0.3-11.8-2.6-15.1C13.1,7.2,11.3,7,9.3,7C8.6,7,6.8,6.7,6,6.4C6.2,7.2,6.5,9,6.5,9.7
			c0.1,2,0.2,3.9,1.7,5.5c0.8,0.8,2.5,1.4,4.5,1.6c0.7,0.1,1.7,0.1,2.1,0.1c-0.1-1-0.5-2-1.1-2.9c-0.7-1.1-1.8-2.2-4.7-3.8l0.2-0.3
			c2.9,1.1,4.5,2.2,5.6,3.7c0.8,1.1,1.2,2.3,1.4,3.3c0.1,1.3,0,2.5,0,2.5h-1.3c-3.2,0-6.1-0.9-7.6-2.4C5.1,14.7,5,12.2,4.9,10
			C4.8,7.2,4.3,4.8,4.3,4.8S6.3,5.2,9.6,5.3z M24,26.9c-4.8-0.3-11.8-0.3-15.1,2.6c-1.6,1.4-1.8,3.2-1.8,5.3c0,0.7-0.2,2.5-0.5,3.3
			c0.7-0.2,2.5-0.4,3.2-0.5c2-0.1,3.9-0.2,5.5-1.7c0.8-0.8,1.4-2.5,1.6-4.5c0.1-0.7,0.1-1.7,0.1-2.1c-1,0.1-2,0.5-2.9,1.1
			c-1.1,0.7-2.2,1.8-3.8,4.7l-0.3-0.2c1.1-2.9,2.2-4.5,3.7-5.6c1.1-0.8,2.3-1.2,3.3-1.4c1.3-0.1,2.5,0,2.5,0v1.3
			c0,3.2-0.9,6.1-2.4,7.6c-2.2,2.2-4.7,2.3-6.9,2.4c-2.8,0.1-5.2,0.5-5.2,0.5s0.4-2,0.5-5.2c0.1-2.2,0.1-4.8,2.4-7
			c2.6-2.5,8.8-2.9,12.8-2.9c1.7,0,3,0.1,3.4,0.1V26.9z M34.5,38.8c-2.2-0.1-4.8-0.1-7-2.4c-2.5-2.6-2.9-8.8-2.9-12.8
			c0-1.7,0.1-3,0.1-3.4H27C26.7,25,26.6,32,29.5,35.3c1.4,1.6,3.2,1.8,5.3,1.8c0.7,0,2.5,0.2,3.3,0.5c-0.2-0.7-0.4-2.5-0.5-3.2
			c-0.1-2-0.2-3.9-1.7-5.5c-0.8-0.8-2.5-1.4-4.5-1.6c-0.7-0.1-1.7-0.1-2.1-0.1c0.1,1,0.5,2,1.1,2.9c0.7,1.1,1.8,2.2,4.7,3.8
			l-0.2,0.3c-2.9-1.1-4.5-2.2-5.6-3.7c-0.8-1.1-1.2-2.3-1.4-3.3c-0.1-1.3,0-2.5,0-2.5h1.3c3.2,0,6.1,0.9,7.6,2.4
			c2.2,2.2,2.3,4.7,2.4,6.9c0.1,2.8,0.5,5.2,0.5,5.2S37.7,38.9,34.5,38.8z"/>
	</g>
</g>
</svg>
