<?xml version="1.0" encoding="utf-8"?>
<!-- Generator: Adobe Illustrator 17.1.0, SVG Export Plug-In . SVG Version: 6.00 Build 0)  -->
<!DOCTYPE svg PUBLIC "-//W3C//DTD SVG 1.1//EN" "http://www.w3.org/Graphics/SVG/1.1/DTD/svg11.dtd">
<svg version="1.1" id="Layer_1" xmlns="http://www.w3.org/2000/svg" xmlns:xlink="http://www.w3.org/1999/xlink" x="0px" y="0px"
	 viewBox="0 0 290.6 44.2" enable-background="new 0 0 290.6 44.2" xml:space="preserve">
<g>
	<g>
		<g>
			<path fill="#99999A" d="M93.9,17.4c-0.7,0.4-2.3,0.8-4.3,0.8c-4.6,0-8-2.9-8-8.3c0-5.1,3.5-8.6,8.5-8.6c2,0,3.3,0.4,3.9,0.7
				l-0.5,1.7c-0.8-0.4-1.9-0.7-3.3-0.7c-3.8,0-6.4,2.4-6.4,6.7c0,4,2.3,6.6,6.2,6.6c1.3,0,2.6-0.3,3.5-0.7L93.9,17.4z"/>
			<path fill="#99999A" d="M109.3,9.5c0,5.6-3.4,8.6-7.6,8.6c-4.3,0-7.3-3.4-7.3-8.3c0-5.2,3.2-8.6,7.5-8.6
				C106.4,1.3,109.3,4.7,109.3,9.5z M96.6,9.8c0,3.5,1.9,6.6,5.2,6.6c3.3,0,5.2-3.1,5.2-6.8c0-3.3-1.7-6.7-5.2-6.7
				C98.3,3,96.6,6.2,96.6,9.8z"/>
			<path fill="#99999A" d="M111.7,17.9V1.6h2.3l5.2,8.2c1.2,1.9,2.2,3.6,2.9,5.3l0.1,0c-0.2-2.2-0.2-4.2-0.2-6.7V1.6h2v16.3h-2.1
				l-5.2-8.3c-1.1-1.8-2.2-3.7-3-5.4l-0.1,0c0.1,2.1,0.1,4,0.1,6.7v7H111.7z"/>
			<path fill="#99999A" d="M126.8,15.3c0.9,0.6,2.3,1.1,3.8,1.1c2.2,0,3.4-1.1,3.4-2.8c0-1.5-0.9-2.4-3.1-3.2
				c-2.7-1-4.3-2.4-4.3-4.6c0-2.5,2.1-4.4,5.3-4.4c1.6,0,2.9,0.4,3.6,0.8l-0.6,1.7c-0.5-0.3-1.6-0.8-3.1-0.8c-2.2,0-3.1,1.3-3.1,2.4
				c0,1.5,1,2.3,3.2,3.1c2.8,1.1,4.1,2.4,4.1,4.8c0,2.5-1.8,4.7-5.7,4.7c-1.6,0-3.3-0.5-4.2-1.1L126.8,15.3z"/>
			<path fill="#99999A" d="M140.2,1.6v9.7c0,3.6,1.6,5.2,3.8,5.2c2.4,0,4-1.6,4-5.2V1.6h2.1v9.5c0,5-2.6,7-6.2,7
				c-3.3,0-5.9-1.9-5.9-7V1.6H140.2z"/>
			<path fill="#99999A" d="M153.3,1.6h2.1v14.5h7v1.8h-9.1V1.6z"/>
			<path fill="#99999A" d="M165.6,3.3h-5V1.6h12.1v1.8h-5v14.5h-2.1V3.3z"/>
			<path fill="#99999A" d="M176.4,1.6v16.3h-2.1V1.6H176.4z"/>
			<path fill="#99999A" d="M179.6,17.9V1.6h2.3l5.2,8.2c1.2,1.9,2.2,3.6,2.9,5.3l0.1,0c-0.2-2.2-0.2-4.2-0.2-6.7V1.6h2v16.3h-2.1
				l-5.2-8.3c-1.1-1.8-2.2-3.7-3-5.4l-0.1,0c0.1,2.1,0.1,4,0.1,6.7v7H179.6z"/>
			<path fill="#99999A" d="M207.6,17.1c-0.9,0.4-2.8,0.9-5,0.9c-2.5,0-4.5-0.6-6.1-2.2c-1.4-1.4-2.3-3.5-2.3-6.1
				c0-4.9,3.4-8.4,8.8-8.4c1.9,0,3.4,0.4,4.1,0.7l-0.5,1.7c-0.9-0.4-2-0.7-3.6-0.7c-4,0-6.6,2.5-6.6,6.6c0,4.1,2.5,6.6,6.3,6.6
				c1.4,0,2.3-0.2,2.8-0.4V11h-3.3V9.3h5.4V17.1z"/>
			<path fill="#99999A" d="M228.4,17.1c-0.9,0.4-2.8,0.9-5,0.9c-2.5,0-4.5-0.6-6.1-2.2c-1.4-1.4-2.3-3.5-2.3-6.1
				c0-4.9,3.4-8.4,8.8-8.4c1.9,0,3.4,0.4,4.1,0.7l-0.5,1.7c-0.9-0.4-2-0.7-3.6-0.7c-4,0-6.6,2.5-6.6,6.6c0,4.1,2.5,6.6,6.3,6.6
				c1.4,0,2.3-0.2,2.8-0.4V11H223V9.3h5.4V17.1z"/>
			<path fill="#99999A" d="M231.2,1.8c1.1-0.2,2.6-0.3,4-0.3c2.2,0,3.7,0.4,4.7,1.3c0.8,0.7,1.3,1.8,1.3,3.1c0,2.1-1.4,3.6-3,4.1
				c0,0-0.6,0.2-1,0.4c0.1,0.2,4.6,7.5,4.6,7.5h-2.2c0,0-3.1-5.1-4.4-7.1h-2v7.1h-2.1V1.8z M233.3,9.2h2.2c2.2,0,3.7-1.2,3.7-3.1
				c0-2.1-1.5-3-3.8-3c-1,0-1.7,0.1-2.1,0.2V9.2z"/>
			<path fill="#99999A" d="M257.8,9.5c0,5.6-3.4,8.6-7.6,8.6c-4.3,0-7.3-3.4-7.3-8.3c0-5.2,3.2-8.6,7.5-8.6
				C254.9,1.3,257.8,4.7,257.8,9.5z M245.1,9.8c0,3.5,1.9,6.6,5.2,6.6c3.3,0,5.2-3.1,5.2-6.8c0-3.3-1.7-6.7-5.2-6.7
				C246.9,3,245.1,6.2,245.1,9.8z"/>
			<path fill="#99999A" d="M262.3,1.6v9.7c0,3.6,1.6,5.2,3.8,5.2c2.4,0,4-1.6,4-5.2V1.6h2.1v9.5c0,5-2.6,7-6.2,7
				c-3.3,0-5.9-1.9-5.9-7V1.6H262.3z"/>
			<path fill="#99999A" d="M275.4,1.7c1-0.2,2.3-0.3,4-0.3c2.1,0,3.6,0.5,4.6,1.4c0.9,0.8,1.4,2,1.4,3.4c0,1.5-0.4,2.6-1.3,3.5
				c-1.1,1.2-2.9,1.8-5,1.8c-0.6,0-1.2,0-1.7-0.1v6.5h-2.1V1.7z M277.5,9.6c0.5,0.1,1,0.2,1.7,0.2c2.5,0,4.1-1.3,4.1-3.5
				c0-2.2-1.5-3.2-3.8-3.2c-0.9,0-1.6,0.1-2,0.2V9.6z"/>
		</g>
		<line fill="#FFFFFF" stroke="#FF6C0C" stroke-width="1.26" x1="1.8" y1="22.7" x2="77" y2="22.7"/>
		<line fill="#FFFFFF" stroke="#99999A" stroke-width="1.26" x1="80" y1="22.7" x2="290.6" y2="22.7"/>
		<g>
			<path fill="#FF6C0C" d="M2.3,1.8c0.9-0.2,2.4-0.4,3.8-0.4c2.1,0,3.5,0.4,4.5,1.2c0.8,0.6,1.4,1.6,1.4,2.9c0,1.6-1.1,3-2.8,3.6
				v0.1c1.5,0.4,3.4,1.6,3.4,4.1c0,1.4-0.6,2.5-1.4,3.3c-1.1,1-3,1.5-5.6,1.5c-1.5,0-2.6-0.1-3.3-0.2V1.8z M4.4,8.5h1.9
				c2.2,0,3.5-1.2,3.5-2.8c0-1.9-1.4-2.7-3.6-2.7c-1,0-1.5,0.1-1.9,0.1V8.5z M4.4,16.3c0.4,0.1,1,0.1,1.8,0.1c2.2,0,4.2-0.8,4.2-3.2
				c0-2.2-1.9-3.1-4.2-3.1H4.4V16.3z"/>
			<path fill="#FF6C0C" d="M15,1.6h2.1v14.5h7v1.8H15V1.6z"/>
			<path fill="#FF6C0C" d="M39.3,9.5c0,5.6-3.4,8.6-7.6,8.6c-4.3,0-7.3-3.4-7.3-8.3c0-5.2,3.2-8.6,7.5-8.6
				C36.4,1.3,39.3,4.7,39.3,9.5z M26.6,9.8c0,3.5,1.9,6.6,5.2,6.6c3.3,0,5.2-3.1,5.2-6.8c0-3.3-1.7-6.7-5.2-6.7
				C28.4,3,26.6,6.2,26.6,9.8z"/>
			<path fill="#FF6C0C" d="M55.7,9.5c0,5.6-3.4,8.6-7.6,8.6c-4.3,0-7.3-3.4-7.3-8.3c0-5.2,3.2-8.6,7.5-8.6
				C52.8,1.3,55.7,4.7,55.7,9.5z M43,9.8c0,3.5,1.9,6.6,5.2,6.6c3.3,0,5.2-3.1,5.2-6.8c0-3.3-1.7-6.7-5.2-6.7C44.8,3,43,6.2,43,9.8z
				"/>
			<path fill="#FF6C0C" d="M71.4,10.7c-0.1-2.3,0-5,0-7l0,0c-0.6,1.9-1.2,3.9-2.1,6.2l-2.9,7.9h-1.6L62.2,10
				c-0.8-2.3-1.4-4.4-1.9-6.3l0,0c0,2,0.1,4.7,0,7.2v7h-1.7V1.6h2.7l2.8,7.9c0.7,2,1.2,3.8,1.6,5.5h0c0.4-1.6,1-3.4,1.7-5.5l2.9-7.9
				h2.7v16.3h-1.8V10.7z"/>
		</g>
	</g>
</g>
<g>
	<path fill="#99999A" d="M0,38.8l4-7.2h0.7l1.4,7.2H5.2l-0.4-2.2H2.2L1,38.8H0z M2.6,35.8h2.1l-0.3-1.4c-0.1-0.6-0.2-1.2-0.3-1.6h0
		c-0.2,0.4-0.5,1-0.9,1.7L2.6,35.8z"/>
	<path fill="#99999A" d="M13.3,34.6c0,0.1-0.1,0.2-0.1,0.3c0,0.1-0.1,0.3-0.2,0.4c-0.1,0.1-0.1,0.3-0.2,0.4
		c-0.1,0.2-0.1,0.3-0.2,0.4l-1.1,2.6h-0.9l-0.9-5.1h0.8L11,36c0,0.2,0.1,0.4,0.1,0.6s0,0.3,0.1,0.5c0,0.1,0,0.3,0.1,0.4
		c0,0.1,0,0.2,0,0.4h0c0-0.1,0.1-0.2,0.1-0.3c0-0.1,0.1-0.2,0.1-0.3c0-0.1,0.1-0.2,0.1-0.3s0.1-0.2,0.1-0.3l1.2-2.8h0.9l0.3,2.8
		c0,0.1,0,0.2,0,0.3c0,0.1,0,0.2,0,0.3c0,0.1,0,0.2,0,0.4c0,0.1,0,0.2,0,0.3h0c0.1-0.2,0.2-0.5,0.3-0.7c0.1-0.2,0.2-0.4,0.3-0.6
		l1.5-2.8h0.9l-2.8,5.1h-0.9l-0.2-2.6c0-0.1,0-0.3,0-0.4c0-0.1,0-0.3,0-0.4c0-0.1,0-0.3,0-0.4S13.3,34.7,13.3,34.6L13.3,34.6z"/>
	<path fill="#99999A" d="M19.1,34.4c0.2-0.3,0.5-0.5,0.8-0.6c0.3-0.1,0.6-0.2,1-0.2c0.2,0,0.4,0,0.6,0.1s0.3,0.1,0.4,0.2
		c0.1,0.1,0.2,0.2,0.3,0.4c0.1,0.2,0.1,0.3,0.1,0.5c0,0.1,0,0.3,0,0.4c0,0.2-0.1,0.3-0.1,0.5l-0.6,3.1h-0.8l0.6-3.1
		c0-0.2,0.1-0.3,0.1-0.4s0-0.2,0-0.2c0-0.1,0-0.2-0.1-0.3c0-0.1-0.1-0.2-0.2-0.2c-0.1-0.1-0.1-0.1-0.2-0.1c-0.1,0-0.2,0-0.3,0
		c-0.2,0-0.5,0-0.7,0.1s-0.4,0.2-0.6,0.4c-0.2,0.2-0.3,0.3-0.4,0.5s-0.2,0.4-0.2,0.7l-0.6,2.8h-0.8l1.6-7.8h0.8L19.1,34.4L19.1,34.4
		z"/>
	<path fill="#99999A" d="M27.8,35.5c0,0.2,0,0.5-0.1,0.7s-0.1,0.5-0.2,0.8s-0.2,0.5-0.4,0.7c-0.1,0.2-0.3,0.4-0.5,0.6
		c-0.2,0.2-0.4,0.3-0.7,0.4c-0.3,0.1-0.6,0.2-0.9,0.2c-0.3,0-0.5,0-0.7-0.1s-0.4-0.2-0.6-0.4s-0.3-0.4-0.4-0.6
		c-0.1-0.2-0.1-0.5-0.1-0.8c0-0.2,0-0.5,0.1-0.7c0-0.3,0.1-0.5,0.2-0.8s0.2-0.5,0.4-0.7c0.1-0.2,0.3-0.4,0.5-0.6s0.4-0.3,0.7-0.4
		s0.6-0.2,0.9-0.2c0.3,0,0.5,0,0.7,0.1c0.2,0.1,0.4,0.2,0.6,0.4c0.2,0.2,0.3,0.4,0.4,0.6C27.7,34.9,27.8,35.2,27.8,35.5z M25.9,34.2
		c-0.2,0-0.4,0-0.6,0.1c-0.2,0.1-0.3,0.2-0.5,0.3c-0.1,0.1-0.3,0.3-0.4,0.5c-0.1,0.2-0.2,0.4-0.3,0.6s-0.1,0.4-0.2,0.6
		c0,0.2-0.1,0.4-0.1,0.6c0,0.2,0,0.4,0.1,0.5c0,0.2,0.1,0.3,0.2,0.4s0.2,0.2,0.3,0.3c0.1,0.1,0.3,0.1,0.5,0.1c0.2,0,0.4,0,0.6-0.1
		c0.2-0.1,0.3-0.2,0.5-0.3c0.1-0.1,0.3-0.3,0.4-0.5c0.1-0.2,0.2-0.4,0.3-0.6c0.1-0.2,0.1-0.4,0.2-0.6s0.1-0.4,0.1-0.6
		c0-0.2,0-0.4-0.1-0.5c0-0.2-0.1-0.3-0.2-0.4s-0.2-0.2-0.3-0.3C26.2,34.3,26.1,34.2,25.9,34.2z"/>
	<path fill="#99999A" d="M30,38.8c-0.1,0-0.1,0-0.2,0c-0.1,0-0.2,0-0.3,0c-0.3,0-0.5-0.1-0.7-0.2c-0.2-0.1-0.2-0.3-0.2-0.6
		c0-0.1,0-0.2,0-0.4l1.4-6.7h0.8l-1.4,6.5c0,0.2,0,0.3,0,0.3c0,0.1,0,0.2,0.1,0.2s0.1,0.1,0.3,0.1s0.2,0,0.4,0L30,38.8z"/>
	<path fill="#99999A" d="M32.7,38.8c-0.1,0-0.1,0-0.2,0c-0.1,0-0.2,0-0.3,0c-0.3,0-0.5-0.1-0.7-0.2c-0.2-0.1-0.2-0.3-0.2-0.6
		c0-0.1,0-0.2,0-0.4l1.4-6.7h0.8l-1.4,6.5c0,0.2,0,0.3,0,0.3c0,0.1,0,0.2,0.1,0.2s0.1,0.1,0.3,0.1s0.2,0,0.4,0L32.7,38.8z"/>
	<path fill="#99999A" d="M34.1,33.7h0.9l0.9,4h0l2.2-4h1l-2.9,5.2c-0.2,0.3-0.4,0.6-0.5,0.9s-0.3,0.5-0.5,0.7
		c-0.2,0.3-0.5,0.5-0.8,0.7c-0.3,0.2-0.7,0.2-1.1,0.2c-0.1,0-0.2,0-0.2,0c-0.1,0-0.2,0-0.2,0l0.2-0.7c0.1,0,0.1,0,0.2,0
		c0.1,0,0.1,0,0.2,0c0.2,0,0.4,0,0.6-0.1s0.4-0.2,0.5-0.4c0.2-0.2,0.3-0.4,0.5-0.6s0.3-0.5,0.5-0.9L34.1,33.7z"/>
	<path fill="#99999A" d="M45.8,35.5c0,0.2,0,0.5-0.1,0.7s-0.1,0.5-0.2,0.8s-0.2,0.5-0.4,0.7c-0.1,0.2-0.3,0.4-0.5,0.6
		c-0.2,0.2-0.4,0.3-0.7,0.4c-0.3,0.1-0.6,0.2-0.9,0.2c-0.3,0-0.5,0-0.7-0.1s-0.4-0.2-0.6-0.4s-0.3-0.4-0.4-0.6
		c-0.1-0.2-0.1-0.5-0.1-0.8c0-0.2,0-0.5,0.1-0.7c0-0.3,0.1-0.5,0.2-0.8s0.2-0.5,0.4-0.7c0.1-0.2,0.3-0.4,0.5-0.6s0.4-0.3,0.7-0.4
		s0.6-0.2,0.9-0.2c0.3,0,0.5,0,0.7,0.1c0.2,0.1,0.4,0.2,0.6,0.4c0.2,0.2,0.3,0.4,0.4,0.6C45.8,34.9,45.8,35.2,45.8,35.5z M43.9,34.2
		c-0.2,0-0.4,0-0.6,0.1c-0.2,0.1-0.3,0.2-0.5,0.3c-0.1,0.1-0.3,0.3-0.4,0.5c-0.1,0.2-0.2,0.4-0.3,0.6s-0.1,0.4-0.2,0.6
		c0,0.2-0.1,0.4-0.1,0.6c0,0.2,0,0.4,0.1,0.5c0,0.2,0.1,0.3,0.2,0.4s0.2,0.2,0.3,0.3c0.1,0.1,0.3,0.1,0.5,0.1c0.2,0,0.4,0,0.6-0.1
		c0.2-0.1,0.3-0.2,0.5-0.3c0.1-0.1,0.3-0.3,0.4-0.5c0.1-0.2,0.2-0.4,0.3-0.6c0.1-0.2,0.1-0.4,0.2-0.6s0.1-0.4,0.1-0.6
		c0-0.2,0-0.4-0.1-0.5c0-0.2-0.1-0.3-0.2-0.4s-0.2-0.2-0.3-0.3C44.3,34.3,44.1,34.2,43.9,34.2z"/>
	<path fill="#99999A" d="M50.3,34.6c0,0.1-0.1,0.2-0.1,0.3c0,0.1-0.1,0.3-0.2,0.4c-0.1,0.1-0.1,0.3-0.2,0.4
		c-0.1,0.2-0.1,0.3-0.2,0.4l-1.1,2.6h-0.9l-0.9-5.1h0.8L48,36c0,0.2,0.1,0.4,0.1,0.6s0,0.3,0.1,0.5c0,0.1,0,0.3,0.1,0.4
		c0,0.1,0,0.2,0,0.4h0c0-0.1,0.1-0.2,0.1-0.3c0-0.1,0.1-0.2,0.1-0.3c0-0.1,0.1-0.2,0.1-0.3s0.1-0.2,0.1-0.3l1.2-2.8h0.9l0.3,2.8
		c0,0.1,0,0.2,0,0.3c0,0.1,0,0.2,0,0.3c0,0.1,0,0.2,0,0.4c0,0.1,0,0.2,0,0.3h0c0.1-0.2,0.2-0.5,0.3-0.7c0.1-0.2,0.2-0.4,0.3-0.6
		l1.5-2.8h0.9l-2.8,5.1h-0.9l-0.2-2.6c0-0.1,0-0.3,0-0.4c0-0.1,0-0.3,0-0.4c0-0.1,0-0.3,0-0.4S50.4,34.7,50.3,34.6L50.3,34.6z"/>
	<path fill="#99999A" d="M55.1,38.8h-0.8l1.1-5.1h0.7v0.7h0c0.2-0.3,0.5-0.5,0.8-0.6c0.3-0.1,0.6-0.2,1-0.2c0.2,0,0.4,0,0.6,0.1
		c0.2,0.1,0.3,0.1,0.4,0.2c0.1,0.1,0.2,0.2,0.3,0.4c0.1,0.2,0.1,0.3,0.1,0.5c0,0.1,0,0.3,0,0.4c0,0.2-0.1,0.3-0.1,0.5l-0.6,3.1h-0.8
		l0.7-3.2c0.1-0.3,0.1-0.5,0.1-0.6c0-0.1,0-0.2-0.1-0.3c0-0.1-0.1-0.2-0.2-0.2s-0.1-0.1-0.2-0.1c-0.1,0-0.2,0-0.3,0
		c-0.2,0-0.5,0-0.7,0.1s-0.4,0.2-0.6,0.4c-0.2,0.2-0.3,0.3-0.4,0.5s-0.2,0.4-0.2,0.7L55.1,38.8z"/>
	<path fill="#99999A" d="M64.5,34.9c0,0.3-0.1,0.6-0.2,0.8s-0.4,0.4-0.7,0.5c-0.3,0.1-0.7,0.2-1.1,0.3s-0.9,0.1-1.5,0.1
		c0,0,0,0.1,0,0.1c0,0,0,0.1,0,0.1c0,0.5,0.1,0.8,0.3,1s0.6,0.3,1,0.3c0.1,0,0.2,0,0.4,0c0.1,0,0.3,0,0.4-0.1s0.3-0.1,0.4-0.1
		c0.1,0,0.2-0.1,0.3-0.1l-0.2,0.8c-0.2,0.1-0.4,0.2-0.6,0.2c-0.2,0.1-0.5,0.1-0.8,0.1c-0.4,0-0.7-0.1-0.9-0.2
		c-0.3-0.1-0.5-0.2-0.7-0.4c-0.2-0.2-0.3-0.4-0.4-0.6c-0.1-0.2-0.1-0.5-0.1-0.8c0-0.3,0-0.5,0.1-0.8s0.1-0.5,0.2-0.8
		c0.1-0.2,0.2-0.5,0.4-0.7c0.2-0.2,0.3-0.4,0.5-0.6c0.2-0.2,0.4-0.3,0.7-0.4c0.3-0.1,0.5-0.1,0.8-0.1c0.2,0,0.4,0,0.6,0.1
		c0.2,0.1,0.4,0.1,0.5,0.2s0.3,0.2,0.3,0.4C64.5,34.4,64.5,34.6,64.5,34.9z M61.2,35.8c0.4,0,0.7,0,1.1-0.1c0.3,0,0.6-0.1,0.8-0.2
		c0.2-0.1,0.4-0.2,0.5-0.3s0.2-0.3,0.2-0.5c0-0.1,0-0.1,0-0.2c0-0.1-0.1-0.1-0.1-0.2s-0.1-0.1-0.2-0.1c-0.1,0-0.2,0-0.3,0
		c-0.2,0-0.4,0-0.6,0.1c-0.2,0.1-0.4,0.2-0.5,0.3c-0.2,0.1-0.3,0.3-0.4,0.5S61.2,35.6,61.2,35.8z"/>
	<path fill="#99999A" d="M66.6,38.9c-0.2,0-0.4,0-0.6-0.1c-0.2-0.1-0.3-0.2-0.4-0.3s-0.2-0.3-0.3-0.5c-0.1-0.2-0.1-0.4-0.1-0.7
		c0-0.3,0-0.6,0.1-0.9c0.1-0.3,0.1-0.6,0.2-0.9s0.2-0.5,0.4-0.8c0.1-0.2,0.3-0.4,0.5-0.6s0.4-0.3,0.6-0.4c0.2-0.1,0.5-0.1,0.7-0.1
		c0.3,0,0.5,0.1,0.8,0.2s0.4,0.3,0.5,0.5h0l0.7-3.2h0.8l-1.4,6.6c0,0.1,0,0.1,0,0.2s0,0.1,0,0.1c0,0.1,0,0.1,0.1,0.2
		c0,0,0.1,0.1,0.3,0.1c0,0,0.1,0,0.2,0c0.1,0,0.1,0,0.2,0l-0.1,0.7c-0.1,0-0.1,0-0.2,0s-0.2,0-0.3,0c-0.3,0-0.5-0.1-0.6-0.2
		s-0.2-0.4-0.2-0.7h0c-0.1,0.2-0.3,0.3-0.4,0.5c-0.1,0.1-0.3,0.2-0.4,0.3c-0.1,0.1-0.3,0.1-0.4,0.2S66.7,38.9,66.6,38.9z M68.9,34.8
		c0-0.1-0.1-0.1-0.2-0.2c-0.1-0.1-0.1-0.1-0.2-0.2s-0.2-0.1-0.3-0.1c-0.1,0-0.2-0.1-0.4-0.1c-0.2,0-0.4,0-0.6,0.1
		c-0.2,0.1-0.3,0.2-0.5,0.4s-0.2,0.3-0.3,0.5c-0.1,0.2-0.2,0.4-0.2,0.6s-0.1,0.4-0.1,0.6c0,0.2,0,0.4,0,0.6c0,0.2,0,0.4,0.1,0.6
		s0.1,0.3,0.2,0.3s0.2,0.1,0.3,0.2s0.2,0.1,0.3,0.1c0.2,0,0.4,0,0.5-0.1c0.2-0.1,0.4-0.2,0.5-0.4s0.3-0.4,0.4-0.6
		c0.1-0.3,0.2-0.5,0.3-0.9L68.9,34.8z"/>
	<path fill="#99999A" d="M74.2,35c0,0.1,0,0.2,0.1,0.3c0,0.1,0.1,0.2,0.2,0.2c0.1,0.1,0.2,0.1,0.3,0.2s0.2,0.1,0.3,0.1
		c0.2,0.1,0.3,0.1,0.5,0.2s0.3,0.1,0.4,0.2s0.2,0.2,0.3,0.4s0.1,0.3,0.1,0.6c0,0.3-0.1,0.5-0.2,0.7c-0.1,0.2-0.3,0.4-0.4,0.5
		c-0.2,0.1-0.4,0.3-0.7,0.3c-0.3,0.1-0.5,0.1-0.9,0.1c-0.3,0-0.6,0-0.8-0.1c-0.3-0.1-0.5-0.1-0.7-0.2l0.2-0.7
		c0.2,0.1,0.4,0.2,0.6,0.2c0.2,0.1,0.5,0.1,0.7,0.1c0.3,0,0.5,0,0.7-0.1c0.2-0.1,0.3-0.1,0.4-0.2c0.1-0.1,0.2-0.2,0.2-0.3
		c0-0.1,0-0.2,0-0.3c0-0.1,0-0.3-0.1-0.3c-0.1-0.1-0.1-0.2-0.3-0.2s-0.2-0.1-0.4-0.2c-0.1,0-0.3-0.1-0.4-0.1c-0.1,0-0.3-0.1-0.4-0.2
		s-0.2-0.1-0.3-0.2c-0.1-0.1-0.2-0.2-0.2-0.3c-0.1-0.1-0.1-0.3-0.1-0.5c0-0.3,0.1-0.5,0.2-0.7s0.2-0.4,0.4-0.5
		c0.2-0.1,0.4-0.2,0.6-0.3s0.5-0.1,0.7-0.1c0.1,0,0.3,0,0.4,0s0.3,0,0.4,0.1c0.1,0,0.3,0.1,0.4,0.1c0.1,0,0.2,0.1,0.3,0.1l-0.1,0.7
		c-0.2-0.1-0.4-0.2-0.7-0.2c-0.2-0.1-0.5-0.1-0.7-0.1c-0.2,0-0.3,0-0.5,0.1s-0.2,0.1-0.3,0.2c-0.1,0.1-0.2,0.2-0.2,0.2
		S74.2,34.9,74.2,35z"/>
	<path fill="#99999A" d="M79.3,38.9c-0.3,0-0.6,0-0.8-0.1s-0.4-0.2-0.6-0.3c-0.1-0.1-0.3-0.3-0.3-0.5c-0.1-0.2-0.1-0.4-0.1-0.6
		c0-0.1,0-0.2,0-0.2c0-0.1,0-0.2,0-0.3l0.7-3.2h0.8l-0.6,3.1c0,0.1,0,0.2,0,0.3c0,0.1,0,0.2,0,0.2c0,0.1,0,0.3,0.1,0.4
		c0,0.1,0.1,0.2,0.2,0.3c0.1,0.1,0.2,0.1,0.3,0.2c0.1,0,0.3,0.1,0.4,0.1c0.2,0,0.4,0,0.6-0.1c0.2-0.1,0.3-0.2,0.4-0.3
		s0.2-0.3,0.3-0.4c0.1-0.2,0.1-0.3,0.2-0.6l0.7-3.2h0.8L81.6,37c0,0.2-0.1,0.4-0.2,0.6c-0.1,0.2-0.2,0.4-0.3,0.5
		c-0.2,0.2-0.4,0.4-0.7,0.6C80.1,38.8,79.8,38.9,79.3,38.9z"/>
	<path fill="#99999A" d="M84.4,34.3c0.1-0.1,0.2-0.2,0.3-0.3c0.1-0.1,0.2-0.2,0.3-0.3s0.2-0.1,0.4-0.2c0.1,0,0.3-0.1,0.5-0.1
		c0.2,0,0.4,0,0.6,0.1s0.4,0.2,0.5,0.3c0.1,0.1,0.3,0.3,0.4,0.6s0.1,0.5,0.1,0.8c0,0.3,0,0.5-0.1,0.8c0,0.3-0.1,0.6-0.2,0.8
		c-0.1,0.3-0.2,0.5-0.4,0.8s-0.3,0.4-0.6,0.6c-0.2,0.2-0.5,0.3-0.7,0.4c-0.3,0.1-0.6,0.2-0.9,0.2c-0.2,0-0.5,0-0.7-0.1
		s-0.4-0.2-0.5-0.3c-0.1-0.1-0.2-0.3-0.3-0.5C83,37.8,83,37.6,83,37.4c0-0.1,0-0.2,0-0.3c0-0.1,0-0.2,0-0.3l1.2-5.8h0.8L84.4,34.3
		L84.4,34.3z M83.9,36.8c0,0.1,0,0.2,0,0.3s0,0.2,0,0.3c0,0.3,0.1,0.5,0.2,0.6c0.1,0.2,0.3,0.2,0.6,0.2c0.2,0,0.4,0,0.6-0.1
		c0.2-0.1,0.3-0.2,0.5-0.3c0.1-0.1,0.3-0.3,0.4-0.5s0.2-0.4,0.3-0.6c0.1-0.2,0.1-0.4,0.2-0.6s0.1-0.4,0.1-0.6c0-0.1,0-0.3-0.1-0.4
		c0-0.1-0.1-0.3-0.2-0.4s-0.2-0.2-0.3-0.3c-0.1-0.1-0.3-0.1-0.4-0.1c-0.1,0-0.3,0-0.5,0.1c-0.2,0.1-0.3,0.2-0.4,0.3
		c-0.1,0.1-0.3,0.3-0.4,0.5c-0.1,0.2-0.2,0.4-0.3,0.7L83.9,36.8z"/>
	<path fill="#99999A" d="M89.4,35c0,0.1,0,0.2,0.1,0.3c0,0.1,0.1,0.2,0.2,0.2c0.1,0.1,0.2,0.1,0.3,0.2s0.2,0.1,0.3,0.1
		c0.2,0.1,0.3,0.1,0.5,0.2s0.3,0.1,0.4,0.2s0.2,0.2,0.3,0.4s0.1,0.3,0.1,0.6c0,0.3-0.1,0.5-0.2,0.7c-0.1,0.2-0.3,0.4-0.4,0.5
		c-0.2,0.1-0.4,0.3-0.7,0.3c-0.3,0.1-0.5,0.1-0.9,0.1c-0.3,0-0.6,0-0.8-0.1c-0.3-0.1-0.5-0.1-0.7-0.2l0.2-0.7
		c0.2,0.1,0.4,0.2,0.6,0.2c0.2,0.1,0.5,0.1,0.7,0.1c0.3,0,0.5,0,0.7-0.1c0.2-0.1,0.3-0.1,0.4-0.2c0.1-0.1,0.2-0.2,0.2-0.3
		c0-0.1,0-0.2,0-0.3c0-0.1,0-0.3-0.1-0.3c-0.1-0.1-0.1-0.2-0.3-0.2s-0.2-0.1-0.4-0.2c-0.1,0-0.3-0.1-0.4-0.1c-0.1,0-0.3-0.1-0.4-0.2
		S89,36.1,88.9,36c-0.1-0.1-0.2-0.2-0.2-0.3c-0.1-0.1-0.1-0.3-0.1-0.5c0-0.3,0.1-0.5,0.2-0.7s0.2-0.4,0.4-0.5
		c0.2-0.1,0.4-0.2,0.6-0.3s0.5-0.1,0.7-0.1c0.1,0,0.3,0,0.4,0s0.3,0,0.4,0.1c0.1,0,0.3,0.1,0.4,0.1c0.1,0,0.2,0.1,0.3,0.1l-0.1,0.7
		c-0.2-0.1-0.4-0.2-0.7-0.2c-0.2-0.1-0.5-0.1-0.7-0.1c-0.2,0-0.3,0-0.5,0.1s-0.2,0.1-0.3,0.2c-0.1,0.1-0.2,0.2-0.2,0.2
		S89.4,34.9,89.4,35z"/>
	<path fill="#99999A" d="M92.5,38.8l1.1-5.1h0.8l-1.1,5.1H92.5z M93.8,32.5l0.2-0.9h0.9l-0.2,0.9H93.8z"/>
	<path fill="#99999A" d="M96.4,38.9c-0.2,0-0.4,0-0.6-0.1c-0.2-0.1-0.3-0.2-0.4-0.3s-0.2-0.3-0.3-0.5C95,37.7,95,37.5,95,37.2
		c0-0.3,0-0.6,0.1-0.9c0.1-0.3,0.1-0.6,0.2-0.9s0.2-0.5,0.4-0.8c0.1-0.2,0.3-0.4,0.5-0.6s0.4-0.3,0.6-0.4c0.2-0.1,0.5-0.1,0.7-0.1
		c0.3,0,0.5,0.1,0.8,0.2s0.4,0.3,0.5,0.5h0l0.7-3.2h0.8l-1.4,6.6c0,0.1,0,0.1,0,0.2s0,0.1,0,0.1c0,0.1,0,0.1,0.1,0.2
		c0,0,0.1,0.1,0.3,0.1c0,0,0.1,0,0.2,0c0.1,0,0.1,0,0.2,0l-0.1,0.7c-0.1,0-0.1,0-0.2,0s-0.2,0-0.3,0c-0.3,0-0.5-0.1-0.6-0.2
		s-0.2-0.4-0.2-0.7h0c-0.1,0.2-0.3,0.3-0.4,0.5c-0.1,0.1-0.3,0.2-0.4,0.3c-0.1,0.1-0.3,0.1-0.4,0.2S96.5,38.9,96.4,38.9z M98.7,34.8
		c0-0.1-0.1-0.1-0.2-0.2c-0.1-0.1-0.1-0.1-0.2-0.2s-0.2-0.1-0.3-0.1c-0.1,0-0.2-0.1-0.4-0.1c-0.2,0-0.4,0-0.6,0.1
		c-0.2,0.1-0.3,0.2-0.5,0.4s-0.2,0.3-0.3,0.5c-0.1,0.2-0.2,0.4-0.2,0.6s-0.1,0.4-0.1,0.6c0,0.2,0,0.4,0,0.6c0,0.2,0,0.4,0.1,0.6
		s0.1,0.3,0.2,0.3s0.2,0.1,0.3,0.2s0.2,0.1,0.3,0.1c0.2,0,0.4,0,0.5-0.1c0.2-0.1,0.4-0.2,0.5-0.4s0.3-0.4,0.4-0.6
		c0.1-0.3,0.2-0.5,0.3-0.9L98.7,34.8z"/>
	<path fill="#99999A" d="M100.5,38.8l1.1-5.1h0.8l-1.1,5.1H100.5z M101.7,32.5l0.2-0.9h0.9l-0.2,0.9H101.7z"/>
	<path fill="#99999A" d="M106,37.9c-0.1,0.2-0.3,0.3-0.4,0.5c-0.1,0.1-0.3,0.2-0.4,0.3s-0.3,0.1-0.4,0.2c-0.1,0-0.3,0.1-0.4,0.1
		c-0.2,0-0.4,0-0.6-0.1c-0.2-0.1-0.3-0.2-0.4-0.3s-0.2-0.3-0.3-0.5c-0.1-0.2-0.1-0.4-0.1-0.7c0-0.3,0-0.6,0.1-0.9s0.1-0.6,0.2-0.8
		c0.1-0.3,0.2-0.5,0.4-0.8s0.3-0.4,0.5-0.6s0.4-0.3,0.6-0.4c0.2-0.1,0.5-0.2,0.8-0.2c0.3,0,0.5,0.1,0.7,0.2c0.2,0.1,0.4,0.3,0.5,0.5
		h0l0.2-0.5h0.7l-0.8,3.9c0,0.1,0,0.2,0,0.3c0,0.1,0,0.1,0.1,0.2c0,0,0.1,0.1,0.3,0.1c0.1,0,0.2,0,0.4,0l-0.1,0.7
		c-0.2,0-0.3,0-0.5,0c-0.3,0-0.5-0.1-0.6-0.2S106,38.3,106,37.9L106,37.9z M106.6,34.8c0-0.1-0.1-0.1-0.2-0.2
		c-0.1-0.1-0.1-0.1-0.2-0.2s-0.2-0.1-0.3-0.1c-0.1,0-0.2-0.1-0.3-0.1c-0.2,0-0.4,0-0.6,0.1c-0.2,0.1-0.3,0.2-0.5,0.4
		s-0.2,0.3-0.3,0.5c-0.1,0.2-0.2,0.4-0.2,0.6c-0.1,0.2-0.1,0.4-0.1,0.6c0,0.2,0,0.4,0,0.6c0,0.2,0,0.4,0.1,0.6
		c0,0.1,0.1,0.3,0.2,0.3s0.2,0.1,0.2,0.2s0.2,0.1,0.3,0.1c0.2,0,0.4,0,0.5-0.1c0.2-0.1,0.3-0.2,0.5-0.4s0.3-0.4,0.4-0.6
		c0.1-0.3,0.2-0.5,0.3-0.9L106.6,34.8z"/>
	<path fill="#99999A" d="M111.9,34.4c-0.1,0-0.2,0-0.3,0c-0.3,0-0.5,0-0.7,0.1s-0.4,0.2-0.5,0.3c-0.1,0.1-0.3,0.3-0.4,0.5
		c-0.1,0.2-0.2,0.4-0.2,0.6l-0.6,2.8h-0.8l1.1-5.1h0.7v0.7h0c0.1-0.1,0.2-0.2,0.3-0.3c0.1-0.1,0.2-0.2,0.3-0.3s0.3-0.1,0.4-0.2
		c0.2,0,0.3-0.1,0.5-0.1c0.1,0,0.1,0,0.2,0c0.1,0,0.1,0,0.2,0L111.9,34.4z"/>
	<path fill="#99999A" d="M112.2,33.7h0.9l0.9,4h0l2.2-4h1l-2.9,5.2c-0.2,0.3-0.4,0.6-0.5,0.9s-0.3,0.5-0.5,0.7
		c-0.2,0.3-0.5,0.5-0.8,0.7c-0.3,0.2-0.7,0.2-1.1,0.2c-0.1,0-0.2,0-0.2,0c-0.1,0-0.2,0-0.2,0l0.2-0.7c0.1,0,0.1,0,0.2,0
		c0.1,0,0.1,0,0.2,0c0.2,0,0.4,0,0.6-0.1s0.4-0.2,0.5-0.4c0.2-0.2,0.3-0.4,0.5-0.6s0.3-0.5,0.5-0.9L112.2,33.7z"/>
	<path fill="#99999A" d="M124,35.5c0,0.2,0,0.5-0.1,0.7s-0.1,0.5-0.2,0.8s-0.2,0.5-0.4,0.7s-0.3,0.4-0.5,0.6s-0.4,0.3-0.7,0.4
		c-0.3,0.1-0.6,0.2-0.9,0.2c-0.3,0-0.5,0-0.7-0.1c-0.2-0.1-0.4-0.2-0.6-0.4s-0.3-0.4-0.4-0.6s-0.1-0.5-0.1-0.8c0-0.2,0-0.5,0.1-0.7
		s0.1-0.5,0.2-0.8c0.1-0.3,0.2-0.5,0.4-0.7s0.3-0.4,0.5-0.6s0.4-0.3,0.7-0.4c0.3-0.1,0.6-0.2,0.9-0.2c0.3,0,0.5,0,0.7,0.1
		s0.4,0.2,0.6,0.4c0.2,0.2,0.3,0.4,0.4,0.6C124,34.9,124,35.2,124,35.5z M122.1,34.2c-0.2,0-0.4,0-0.6,0.1c-0.2,0.1-0.3,0.2-0.5,0.3
		c-0.1,0.1-0.3,0.3-0.4,0.5s-0.2,0.4-0.3,0.6s-0.1,0.4-0.2,0.6c0,0.2-0.1,0.4-0.1,0.6c0,0.2,0,0.4,0.1,0.5s0.1,0.3,0.2,0.4
		s0.2,0.2,0.3,0.3c0.1,0.1,0.3,0.1,0.5,0.1c0.2,0,0.4,0,0.6-0.1c0.2-0.1,0.3-0.2,0.5-0.3c0.1-0.1,0.3-0.3,0.4-0.5
		c0.1-0.2,0.2-0.4,0.3-0.6c0.1-0.2,0.1-0.4,0.2-0.6s0.1-0.4,0.1-0.6c0-0.2,0-0.4-0.1-0.5s-0.1-0.3-0.2-0.4s-0.2-0.2-0.3-0.3
		C122.5,34.3,122.3,34.2,122.1,34.2z"/>
	<path fill="#99999A" d="M125.7,39.5c-0.1,0.4-0.2,0.7-0.3,0.9c-0.1,0.2-0.3,0.4-0.5,0.6s-0.4,0.3-0.6,0.3s-0.5,0.1-0.8,0.1
		c-0.2,0-0.3,0-0.4,0c-0.1,0-0.2,0-0.3-0.1l0.1-0.7c0.1,0,0.2,0.1,0.3,0.1c0.1,0,0.2,0,0.3,0c0.2,0,0.4,0,0.5-0.1s0.3-0.1,0.4-0.3
		c0.1-0.1,0.2-0.3,0.3-0.5c0.1-0.2,0.2-0.5,0.2-0.7l1-4.7H125l0.2-0.7h0.9l0.2-0.9c0.1-0.7,0.4-1.1,0.8-1.5c0.4-0.3,0.8-0.5,1.4-0.5
		c0.2,0,0.3,0,0.5,0s0.3,0.1,0.3,0.1l-0.1,0.7c-0.1,0-0.2,0-0.3-0.1s-0.2,0-0.3,0c-0.4,0-0.6,0.1-0.9,0.3c-0.2,0.2-0.4,0.5-0.5,1
		l-0.2,0.8h1.4l-0.2,0.7h-1.4L125.7,39.5z"/>
	<path fill="#99999A" d="M136.8,34.3c0,0.3,0,0.5-0.1,0.8c0,0.3-0.1,0.6-0.2,0.9c-0.1,0.3-0.2,0.6-0.4,0.8c-0.2,0.3-0.4,0.5-0.6,0.8
		c-0.2,0.2-0.5,0.4-0.8,0.6s-0.7,0.3-1.1,0.4c-0.2,0-0.4,0.1-0.7,0.1c-0.2,0-0.5,0-0.8,0h-1.7l1.5-7.2h1.8c0.2,0,0.5,0,0.7,0
		s0.4,0.1,0.5,0.1c0.3,0.1,0.6,0.2,0.9,0.4c0.2,0.2,0.4,0.4,0.6,0.6c0.2,0.2,0.3,0.5,0.3,0.8C136.8,33.7,136.8,34,136.8,34.3z
		 M135.9,34.3c0-0.3,0-0.5-0.1-0.7c-0.1-0.2-0.1-0.4-0.3-0.5c-0.1-0.1-0.2-0.3-0.4-0.4s-0.3-0.2-0.5-0.2c-0.1,0-0.3-0.1-0.4-0.1
		s-0.3,0-0.6,0h-1.1l-1.2,5.6h0.7c0.3,0,0.5,0,0.7,0s0.4-0.1,0.6-0.1c0.3-0.1,0.6-0.2,0.9-0.4c0.2-0.2,0.5-0.3,0.6-0.5
		c0.2-0.2,0.3-0.4,0.4-0.7s0.2-0.5,0.3-0.7c0.1-0.2,0.1-0.5,0.1-0.7S135.9,34.4,135.9,34.3z"/>
	<path fill="#99999A" d="M140.7,37.9c-0.1,0.2-0.3,0.3-0.4,0.5c-0.1,0.1-0.3,0.2-0.4,0.3s-0.3,0.1-0.4,0.2s-0.3,0.1-0.4,0.1
		c-0.2,0-0.4,0-0.6-0.1c-0.2-0.1-0.3-0.2-0.4-0.3s-0.2-0.3-0.3-0.5c-0.1-0.2-0.1-0.4-0.1-0.7c0-0.3,0-0.6,0.1-0.9
		c0.1-0.3,0.1-0.6,0.2-0.8s0.2-0.5,0.4-0.8c0.1-0.2,0.3-0.4,0.5-0.6c0.2-0.2,0.4-0.3,0.6-0.4c0.2-0.1,0.5-0.2,0.8-0.2
		c0.3,0,0.5,0.1,0.7,0.2c0.2,0.1,0.4,0.3,0.5,0.5h0l0.2-0.5h0.7l-0.8,3.9c0,0.1,0,0.2,0,0.3c0,0.1,0,0.1,0.1,0.2
		c0,0,0.1,0.1,0.3,0.1c0.1,0,0.2,0,0.4,0l-0.1,0.7c-0.2,0-0.3,0-0.5,0c-0.3,0-0.5-0.1-0.6-0.2C140.7,38.5,140.7,38.3,140.7,37.9
		L140.7,37.9z M141.3,34.8c0-0.1-0.1-0.1-0.2-0.2s-0.1-0.1-0.2-0.2c-0.1-0.1-0.2-0.1-0.3-0.1c-0.1,0-0.2-0.1-0.3-0.1
		c-0.2,0-0.4,0-0.6,0.1c-0.2,0.1-0.3,0.2-0.5,0.4c-0.1,0.2-0.2,0.3-0.3,0.5c-0.1,0.2-0.2,0.4-0.2,0.6c-0.1,0.2-0.1,0.4-0.1,0.6
		s0,0.4,0,0.6c0,0.2,0,0.4,0.1,0.6s0.1,0.3,0.2,0.3c0.1,0.1,0.2,0.1,0.2,0.2c0.1,0,0.2,0.1,0.3,0.1c0.2,0,0.4,0,0.5-0.1
		c0.2-0.1,0.3-0.2,0.5-0.4c0.2-0.2,0.3-0.4,0.4-0.6c0.1-0.3,0.2-0.5,0.3-0.9L141.3,34.8z"/>
	<path fill="#99999A" d="M144.2,33.7l0.6,2.8c0.1,0.3,0.1,0.6,0.2,0.8c0,0.2,0.1,0.4,0.1,0.6h0c0.1-0.2,0.2-0.4,0.3-0.6
		c0.1-0.2,0.2-0.4,0.4-0.6l1.6-2.9h1l-3,5.1h-0.8l-1.1-5.1H144.2z"/>
	<path fill="#99999A" d="M152.7,34.9c0,0.3-0.1,0.6-0.2,0.8s-0.4,0.4-0.7,0.5c-0.3,0.1-0.7,0.2-1.1,0.3s-0.9,0.1-1.5,0.1
		c0,0,0,0.1,0,0.1c0,0,0,0.1,0,0.1c0,0.5,0.1,0.8,0.3,1c0.2,0.2,0.6,0.3,1,0.3c0.1,0,0.2,0,0.4,0c0.1,0,0.3,0,0.4-0.1
		s0.3-0.1,0.4-0.1s0.2-0.1,0.3-0.1l-0.2,0.8c-0.2,0.1-0.4,0.2-0.6,0.2c-0.2,0.1-0.5,0.1-0.8,0.1c-0.4,0-0.7-0.1-0.9-0.2
		c-0.3-0.1-0.5-0.2-0.7-0.4s-0.3-0.4-0.4-0.6c-0.1-0.2-0.1-0.5-0.1-0.8c0-0.3,0-0.5,0.1-0.8s0.1-0.5,0.2-0.8
		c0.1-0.2,0.2-0.5,0.4-0.7c0.2-0.2,0.3-0.4,0.5-0.6c0.2-0.2,0.4-0.3,0.7-0.4c0.3-0.1,0.5-0.1,0.8-0.1c0.2,0,0.4,0,0.6,0.1
		s0.4,0.1,0.5,0.2c0.1,0.1,0.3,0.2,0.3,0.4C152.6,34.4,152.7,34.6,152.7,34.9z M149.3,35.8c0.4,0,0.7,0,1.1-0.1
		c0.3,0,0.6-0.1,0.8-0.2c0.2-0.1,0.4-0.2,0.5-0.3c0.1-0.1,0.2-0.3,0.2-0.5c0-0.1,0-0.1,0-0.2c0-0.1-0.1-0.1-0.1-0.2
		s-0.1-0.1-0.2-0.1s-0.2,0-0.3,0c-0.2,0-0.4,0-0.6,0.1s-0.4,0.2-0.5,0.3s-0.3,0.3-0.4,0.5C149.5,35.4,149.4,35.6,149.3,35.8z"/>
	<path fill="#99999A" d="M154.5,35c0,0.1,0,0.2,0.1,0.3c0,0.1,0.1,0.2,0.2,0.2c0.1,0.1,0.2,0.1,0.3,0.2s0.2,0.1,0.3,0.1
		c0.2,0.1,0.3,0.1,0.5,0.2s0.3,0.1,0.4,0.2s0.2,0.2,0.3,0.4c0.1,0.2,0.1,0.3,0.1,0.6c0,0.3-0.1,0.5-0.2,0.7s-0.3,0.4-0.4,0.5
		c-0.2,0.1-0.4,0.3-0.7,0.3s-0.5,0.1-0.9,0.1c-0.3,0-0.6,0-0.8-0.1c-0.3-0.1-0.5-0.1-0.7-0.2l0.2-0.7c0.2,0.1,0.4,0.2,0.6,0.2
		s0.5,0.1,0.7,0.1c0.3,0,0.5,0,0.7-0.1s0.3-0.1,0.4-0.2s0.2-0.2,0.2-0.3s0-0.2,0-0.3c0-0.1,0-0.3-0.1-0.3c-0.1-0.1-0.1-0.2-0.3-0.2
		c-0.1-0.1-0.2-0.1-0.4-0.2c-0.1,0-0.3-0.1-0.4-0.1c-0.1,0-0.3-0.1-0.4-0.2s-0.2-0.1-0.3-0.2c-0.1-0.1-0.2-0.2-0.2-0.3
		c-0.1-0.1-0.1-0.3-0.1-0.5c0-0.3,0.1-0.5,0.2-0.7c0.1-0.2,0.2-0.4,0.4-0.5c0.2-0.1,0.4-0.2,0.6-0.3s0.5-0.1,0.7-0.1
		c0.1,0,0.3,0,0.4,0s0.3,0,0.4,0.1c0.1,0,0.3,0.1,0.4,0.1s0.2,0.1,0.3,0.1l-0.1,0.7c-0.2-0.1-0.4-0.2-0.7-0.2s-0.5-0.1-0.7-0.1
		c-0.2,0-0.3,0-0.5,0.1s-0.2,0.1-0.3,0.2c-0.1,0.1-0.2,0.2-0.2,0.2S154.5,34.9,154.5,35z"/>
	<path fill="#99999A" d="M163,37.9c-0.1,0.2-0.3,0.3-0.4,0.5c-0.1,0.1-0.3,0.2-0.4,0.3s-0.3,0.1-0.4,0.2s-0.3,0.1-0.4,0.1
		c-0.2,0-0.4,0-0.6-0.1c-0.2-0.1-0.3-0.2-0.4-0.3s-0.2-0.3-0.3-0.5c-0.1-0.2-0.1-0.4-0.1-0.7c0-0.3,0-0.6,0.1-0.9
		c0.1-0.3,0.1-0.6,0.2-0.8s0.2-0.5,0.4-0.8c0.1-0.2,0.3-0.4,0.5-0.6c0.2-0.2,0.4-0.3,0.6-0.4c0.2-0.1,0.5-0.2,0.8-0.2
		c0.3,0,0.5,0.1,0.7,0.2c0.2,0.1,0.4,0.3,0.5,0.5h0l0.2-0.5h0.7l-0.8,3.9c0,0.1,0,0.2,0,0.3c0,0.1,0,0.1,0.1,0.2
		c0,0,0.1,0.1,0.3,0.1c0.1,0,0.2,0,0.4,0l-0.1,0.7c-0.2,0-0.3,0-0.5,0c-0.3,0-0.5-0.1-0.6-0.2C163,38.5,163,38.3,163,37.9L163,37.9z
		 M163.6,34.8c0-0.1-0.1-0.1-0.2-0.2s-0.1-0.1-0.2-0.2c-0.1-0.1-0.2-0.1-0.3-0.1c-0.1,0-0.2-0.1-0.3-0.1c-0.2,0-0.4,0-0.6,0.1
		c-0.2,0.1-0.3,0.2-0.5,0.4c-0.1,0.2-0.2,0.3-0.3,0.5c-0.1,0.2-0.2,0.4-0.2,0.6c-0.1,0.2-0.1,0.4-0.1,0.6s0,0.4,0,0.6
		c0,0.2,0,0.4,0.1,0.6s0.1,0.3,0.2,0.3c0.1,0.1,0.2,0.1,0.2,0.2c0.1,0,0.2,0.1,0.3,0.1c0.2,0,0.4,0,0.5-0.1c0.2-0.1,0.3-0.2,0.5-0.4
		c0.2-0.2,0.3-0.4,0.4-0.6c0.1-0.3,0.2-0.5,0.3-0.9L163.6,34.8z"/>
	<path fill="#99999A" d="M166.2,38.8h-0.8l1.1-5.1h0.7v0.7h0c0.2-0.3,0.5-0.5,0.8-0.6c0.3-0.1,0.6-0.2,1-0.2c0.2,0,0.4,0,0.6,0.1
		s0.3,0.1,0.4,0.2c0.1,0.1,0.2,0.2,0.3,0.4c0.1,0.2,0.1,0.3,0.1,0.5c0,0.1,0,0.3,0,0.4s-0.1,0.3-0.1,0.5l-0.6,3.1h-0.8l0.7-3.2
		c0.1-0.3,0.1-0.5,0.1-0.6c0-0.1,0-0.2-0.1-0.3c0-0.1-0.1-0.2-0.2-0.2c-0.1-0.1-0.1-0.1-0.2-0.1c-0.1,0-0.2,0-0.3,0
		c-0.2,0-0.5,0-0.7,0.1c-0.2,0.1-0.4,0.2-0.6,0.4c-0.2,0.2-0.3,0.3-0.4,0.5s-0.2,0.4-0.2,0.7L166.2,38.8z"/>
	<path fill="#99999A" d="M172.6,38.9c-0.2,0-0.4,0-0.6-0.1c-0.2-0.1-0.3-0.2-0.4-0.3c-0.1-0.2-0.2-0.3-0.3-0.5
		c-0.1-0.2-0.1-0.4-0.1-0.7c0-0.3,0-0.6,0.1-0.9s0.1-0.6,0.2-0.9s0.2-0.5,0.4-0.8c0.1-0.2,0.3-0.4,0.5-0.6c0.2-0.2,0.4-0.3,0.6-0.4
		s0.5-0.1,0.7-0.1c0.3,0,0.5,0.1,0.8,0.2s0.4,0.3,0.5,0.5h0l0.7-3.2h0.8l-1.4,6.6c0,0.1,0,0.1,0,0.2s0,0.1,0,0.1
		c0,0.1,0,0.1,0.1,0.2c0,0,0.1,0.1,0.3,0.1c0,0,0.1,0,0.2,0c0.1,0,0.1,0,0.2,0l-0.1,0.7c-0.1,0-0.1,0-0.2,0c-0.1,0-0.2,0-0.3,0
		c-0.3,0-0.5-0.1-0.6-0.2c-0.1-0.1-0.2-0.4-0.2-0.7h0c-0.1,0.2-0.3,0.3-0.4,0.5c-0.1,0.1-0.3,0.2-0.4,0.3c-0.1,0.1-0.3,0.1-0.4,0.2
		S172.7,38.9,172.6,38.9z M174.9,34.8c0-0.1-0.1-0.1-0.2-0.2s-0.1-0.1-0.2-0.2s-0.2-0.1-0.3-0.1s-0.2-0.1-0.4-0.1
		c-0.2,0-0.4,0-0.6,0.1c-0.2,0.1-0.3,0.2-0.5,0.4c-0.1,0.2-0.2,0.3-0.3,0.5s-0.2,0.4-0.2,0.6s-0.1,0.4-0.1,0.6s0,0.4,0,0.6
		c0,0.2,0,0.4,0.1,0.6c0,0.1,0.1,0.3,0.2,0.3c0.1,0.1,0.2,0.1,0.3,0.2c0.1,0,0.2,0.1,0.3,0.1c0.2,0,0.4,0,0.5-0.1
		c0.2-0.1,0.4-0.2,0.5-0.4s0.3-0.4,0.4-0.6c0.1-0.3,0.2-0.5,0.3-0.9L174.9,34.8z"/>
	<path fill="#99999A" d="M178,38.8l4-7.2h0.7l1.4,7.2h-0.9l-0.4-2.2h-2.7l-1.2,2.2H178z M180.6,35.8h2.1l-0.3-1.4
		c-0.1-0.6-0.2-1.2-0.3-1.6h0c-0.2,0.4-0.5,1-0.9,1.7L180.6,35.8z"/>
	<path fill="#99999A" d="M186.6,35c0,0.1,0,0.2,0.1,0.3c0,0.1,0.1,0.2,0.2,0.2c0.1,0.1,0.2,0.1,0.3,0.2s0.2,0.1,0.3,0.1
		c0.2,0.1,0.3,0.1,0.5,0.2s0.3,0.1,0.4,0.2s0.2,0.2,0.3,0.4c0.1,0.2,0.1,0.3,0.1,0.6c0,0.3-0.1,0.5-0.2,0.7s-0.3,0.4-0.4,0.5
		c-0.2,0.1-0.4,0.3-0.7,0.3s-0.5,0.1-0.9,0.1c-0.3,0-0.6,0-0.8-0.1c-0.3-0.1-0.5-0.1-0.7-0.2l0.2-0.7c0.2,0.1,0.4,0.2,0.6,0.2
		s0.5,0.1,0.7,0.1c0.3,0,0.5,0,0.7-0.1s0.3-0.1,0.4-0.2s0.2-0.2,0.2-0.3s0-0.2,0-0.3c0-0.1,0-0.3-0.1-0.3c-0.1-0.1-0.1-0.2-0.3-0.2
		c-0.1-0.1-0.2-0.1-0.4-0.2c-0.1,0-0.3-0.1-0.4-0.1c-0.1,0-0.3-0.1-0.4-0.2s-0.2-0.1-0.3-0.2c-0.1-0.1-0.2-0.2-0.2-0.3
		c-0.1-0.1-0.1-0.3-0.1-0.5c0-0.3,0.1-0.5,0.2-0.7c0.1-0.2,0.2-0.4,0.4-0.5c0.2-0.1,0.4-0.2,0.6-0.3s0.5-0.1,0.7-0.1
		c0.1,0,0.3,0,0.4,0s0.3,0,0.4,0.1c0.1,0,0.3,0.1,0.4,0.1s0.2,0.1,0.3,0.1l-0.1,0.7c-0.2-0.1-0.4-0.2-0.7-0.2s-0.5-0.1-0.7-0.1
		c-0.2,0-0.3,0-0.5,0.1s-0.2,0.1-0.3,0.2c-0.1,0.1-0.2,0.2-0.2,0.2S186.6,34.9,186.6,35z"/>
	<path fill="#99999A" d="M191,35c0,0.1,0,0.2,0.1,0.3c0,0.1,0.1,0.2,0.2,0.2c0.1,0.1,0.2,0.1,0.3,0.2s0.2,0.1,0.3,0.1
		c0.2,0.1,0.3,0.1,0.5,0.2s0.3,0.1,0.4,0.2s0.2,0.2,0.3,0.4c0.1,0.2,0.1,0.3,0.1,0.6c0,0.3-0.1,0.5-0.2,0.7s-0.3,0.4-0.4,0.5
		c-0.2,0.1-0.4,0.3-0.7,0.3s-0.5,0.1-0.9,0.1c-0.3,0-0.6,0-0.8-0.1c-0.3-0.1-0.5-0.1-0.7-0.2l0.2-0.7c0.2,0.1,0.4,0.2,0.6,0.2
		s0.5,0.1,0.7,0.1c0.3,0,0.5,0,0.7-0.1s0.3-0.1,0.4-0.2s0.2-0.2,0.2-0.3s0-0.2,0-0.3c0-0.1,0-0.3-0.1-0.3c-0.1-0.1-0.1-0.2-0.3-0.2
		c-0.1-0.1-0.2-0.1-0.4-0.2c-0.1,0-0.3-0.1-0.4-0.1c-0.1,0-0.3-0.1-0.4-0.2s-0.2-0.1-0.3-0.2c-0.1-0.1-0.2-0.2-0.2-0.3
		c-0.1-0.1-0.1-0.3-0.1-0.5c0-0.3,0.1-0.5,0.2-0.7c0.1-0.2,0.2-0.4,0.4-0.5c0.2-0.1,0.4-0.2,0.6-0.3s0.5-0.1,0.7-0.1
		c0.1,0,0.3,0,0.4,0s0.3,0,0.4,0.1c0.1,0,0.3,0.1,0.4,0.1s0.2,0.1,0.3,0.1l-0.1,0.7c-0.2-0.1-0.4-0.2-0.7-0.2s-0.5-0.1-0.7-0.1
		c-0.2,0-0.3,0-0.5,0.1s-0.2,0.1-0.3,0.2c-0.1,0.1-0.2,0.2-0.2,0.2S191,34.9,191,35z"/>
	<path fill="#99999A" d="M198.8,35.5c0,0.2,0,0.5-0.1,0.7s-0.1,0.5-0.2,0.8s-0.2,0.5-0.4,0.7s-0.3,0.4-0.5,0.6s-0.4,0.3-0.7,0.4
		c-0.3,0.1-0.6,0.2-0.9,0.2c-0.3,0-0.5,0-0.7-0.1c-0.2-0.1-0.4-0.2-0.6-0.4s-0.3-0.4-0.4-0.6s-0.1-0.5-0.1-0.8c0-0.2,0-0.5,0.1-0.7
		s0.1-0.5,0.2-0.8c0.1-0.3,0.2-0.5,0.4-0.7s0.3-0.4,0.5-0.6s0.4-0.3,0.7-0.4c0.3-0.1,0.6-0.2,0.9-0.2c0.3,0,0.5,0,0.7,0.1
		s0.4,0.2,0.6,0.4c0.2,0.2,0.3,0.4,0.4,0.6C198.8,34.9,198.8,35.2,198.8,35.5z M196.9,34.2c-0.2,0-0.4,0-0.6,0.1
		c-0.2,0.1-0.3,0.2-0.5,0.3c-0.1,0.1-0.3,0.3-0.4,0.5s-0.2,0.4-0.3,0.6s-0.1,0.4-0.2,0.6c0,0.2-0.1,0.4-0.1,0.6c0,0.2,0,0.4,0.1,0.5
		s0.1,0.3,0.2,0.4s0.2,0.2,0.3,0.3c0.1,0.1,0.3,0.1,0.5,0.1c0.2,0,0.4,0,0.6-0.1c0.2-0.1,0.3-0.2,0.5-0.3c0.1-0.1,0.3-0.3,0.4-0.5
		c0.1-0.2,0.2-0.4,0.3-0.6c0.1-0.2,0.1-0.4,0.2-0.6s0.1-0.4,0.1-0.6c0-0.2,0-0.4-0.1-0.5s-0.1-0.3-0.2-0.4s-0.2-0.2-0.3-0.3
		C197.3,34.3,197.1,34.2,196.9,34.2z"/>
	<path fill="#99999A" d="M203.6,34.5c-0.2-0.1-0.4-0.1-0.6-0.2s-0.4-0.1-0.6-0.1c-0.2,0-0.5,0-0.7,0.1c-0.2,0.1-0.4,0.2-0.5,0.3
		s-0.3,0.3-0.4,0.5s-0.2,0.4-0.3,0.6s-0.1,0.4-0.1,0.6c0,0.2,0,0.4,0,0.5c0,0.3,0,0.5,0.1,0.6c0.1,0.2,0.1,0.3,0.3,0.4
		s0.2,0.2,0.4,0.2s0.3,0.1,0.5,0.1c0.3,0,0.5,0,0.7-0.1s0.4-0.1,0.6-0.2l-0.2,0.8c-0.1,0-0.2,0.1-0.3,0.1c-0.1,0-0.2,0.1-0.3,0.1
		c-0.1,0-0.2,0-0.4,0.1c-0.1,0-0.3,0-0.4,0c-0.3,0-0.5,0-0.7-0.1c-0.2-0.1-0.4-0.2-0.6-0.3c-0.2-0.2-0.3-0.4-0.4-0.6
		s-0.2-0.6-0.2-0.9c0-0.2,0-0.5,0.1-0.7s0.1-0.5,0.2-0.8s0.2-0.5,0.4-0.7s0.3-0.4,0.5-0.6c0.2-0.2,0.5-0.3,0.7-0.4
		c0.3-0.1,0.6-0.2,0.9-0.2c0.1,0,0.3,0,0.4,0s0.2,0,0.4,0.1c0.1,0,0.2,0.1,0.3,0.1s0.2,0.1,0.2,0.1L203.6,34.5z"/>
	<path fill="#99999A" d="M204,38.8l1.1-5.1h0.8l-1.1,5.1H204z M205.3,32.5l0.2-0.9h0.9l-0.2,0.9H205.3z"/>
	<path fill="#99999A" d="M209.5,37.9c-0.1,0.2-0.3,0.3-0.4,0.5c-0.1,0.1-0.3,0.2-0.4,0.3s-0.3,0.1-0.4,0.2s-0.3,0.1-0.4,0.1
		c-0.2,0-0.4,0-0.6-0.1c-0.2-0.1-0.3-0.2-0.4-0.3s-0.2-0.3-0.3-0.5c-0.1-0.2-0.1-0.4-0.1-0.7c0-0.3,0-0.6,0.1-0.9
		c0.1-0.3,0.1-0.6,0.2-0.8s0.2-0.5,0.4-0.8c0.1-0.2,0.3-0.4,0.5-0.6c0.2-0.2,0.4-0.3,0.6-0.4c0.2-0.1,0.5-0.2,0.8-0.2
		c0.3,0,0.5,0.1,0.7,0.2c0.2,0.1,0.4,0.3,0.5,0.5h0l0.2-0.5h0.7l-0.8,3.9c0,0.1,0,0.2,0,0.3c0,0.1,0,0.1,0.1,0.2
		c0,0,0.1,0.1,0.3,0.1c0.1,0,0.2,0,0.4,0l-0.1,0.7c-0.2,0-0.3,0-0.5,0c-0.3,0-0.5-0.1-0.6-0.2C209.6,38.5,209.6,38.3,209.5,37.9
		L209.5,37.9z M210.2,34.8c0-0.1-0.1-0.1-0.2-0.2s-0.1-0.1-0.2-0.2c-0.1-0.1-0.2-0.1-0.3-0.1c-0.1,0-0.2-0.1-0.3-0.1
		c-0.2,0-0.4,0-0.6,0.1c-0.2,0.1-0.3,0.2-0.5,0.4c-0.1,0.2-0.2,0.3-0.3,0.5c-0.1,0.2-0.2,0.4-0.2,0.6c-0.1,0.2-0.1,0.4-0.1,0.6
		s0,0.4,0,0.6c0,0.2,0,0.4,0.1,0.6s0.1,0.3,0.2,0.3c0.1,0.1,0.2,0.1,0.2,0.2c0.1,0,0.2,0.1,0.3,0.1c0.2,0,0.4,0,0.5-0.1
		c0.2-0.1,0.3-0.2,0.5-0.4c0.2-0.2,0.3-0.4,0.4-0.6c0.1-0.3,0.2-0.5,0.3-0.9L210.2,34.8z"/>
	<path fill="#99999A" d="M214.6,38.8c-0.1,0-0.2,0-0.4,0.1c-0.2,0-0.3,0-0.5,0c-0.5,0-0.8-0.1-1-0.3c-0.2-0.2-0.3-0.4-0.3-0.7
		c0-0.1,0-0.3,0.1-0.4l0.6-3.1h-1l0.2-0.7h1l0.3-1.4h0.8l-0.3,1.4h1.3l-0.1,0.7H214l-0.6,2.9c0,0.1,0,0.2,0,0.2s0,0.1,0,0.2
		c0,0.2,0,0.3,0.1,0.4s0.3,0.1,0.5,0.1c0.1,0,0.2,0,0.4,0s0.3,0,0.4-0.1L214.6,38.8z"/>
	<path fill="#99999A" d="M220.2,34.9c0,0.3-0.1,0.6-0.2,0.8s-0.4,0.4-0.7,0.5c-0.3,0.1-0.7,0.2-1.1,0.3s-0.9,0.1-1.5,0.1
		c0,0,0,0.1,0,0.1c0,0,0,0.1,0,0.1c0,0.5,0.1,0.8,0.3,1c0.2,0.2,0.6,0.3,1,0.3c0.1,0,0.2,0,0.4,0c0.1,0,0.3,0,0.4-0.1
		s0.3-0.1,0.4-0.1s0.2-0.1,0.3-0.1l-0.2,0.8c-0.2,0.1-0.4,0.2-0.6,0.2c-0.2,0.1-0.5,0.1-0.8,0.1c-0.4,0-0.7-0.1-0.9-0.2
		c-0.3-0.1-0.5-0.2-0.7-0.4s-0.3-0.4-0.4-0.6c-0.1-0.2-0.1-0.5-0.1-0.8c0-0.3,0-0.5,0.1-0.8s0.1-0.5,0.2-0.8
		c0.1-0.2,0.2-0.5,0.4-0.7c0.2-0.2,0.3-0.4,0.5-0.6c0.2-0.2,0.4-0.3,0.7-0.4c0.3-0.1,0.5-0.1,0.8-0.1c0.2,0,0.4,0,0.6,0.1
		s0.4,0.1,0.5,0.2c0.1,0.1,0.3,0.2,0.3,0.4C220.1,34.4,220.2,34.6,220.2,34.9z M216.8,35.8c0.4,0,0.7,0,1.1-0.1
		c0.3,0,0.6-0.1,0.8-0.2c0.2-0.1,0.4-0.2,0.5-0.3c0.1-0.1,0.2-0.3,0.2-0.5c0-0.1,0-0.1,0-0.2c0-0.1-0.1-0.1-0.1-0.2
		s-0.1-0.1-0.2-0.1s-0.2,0-0.3,0c-0.2,0-0.4,0-0.6,0.1s-0.4,0.2-0.5,0.3s-0.3,0.3-0.4,0.5C217,35.4,216.9,35.6,216.8,35.8z"/>
	<path fill="#99999A" d="M222,35c0,0.1,0,0.2,0.1,0.3c0,0.1,0.1,0.2,0.2,0.2c0.1,0.1,0.2,0.1,0.3,0.2s0.2,0.1,0.3,0.1
		c0.2,0.1,0.3,0.1,0.5,0.2s0.3,0.1,0.4,0.2s0.2,0.2,0.3,0.4c0.1,0.2,0.1,0.3,0.1,0.6c0,0.3-0.1,0.5-0.2,0.7s-0.3,0.4-0.4,0.5
		c-0.2,0.1-0.4,0.3-0.7,0.3s-0.5,0.1-0.9,0.1c-0.3,0-0.6,0-0.8-0.1c-0.3-0.1-0.5-0.1-0.7-0.2l0.2-0.7c0.2,0.1,0.4,0.2,0.6,0.2
		s0.5,0.1,0.7,0.1c0.3,0,0.5,0,0.7-0.1s0.3-0.1,0.4-0.2s0.2-0.2,0.2-0.3s0-0.2,0-0.3c0-0.1,0-0.3-0.1-0.3c-0.1-0.1-0.1-0.2-0.3-0.2
		c-0.1-0.1-0.2-0.1-0.4-0.2c-0.1,0-0.3-0.1-0.4-0.1c-0.1,0-0.3-0.1-0.4-0.2s-0.2-0.1-0.3-0.2c-0.1-0.1-0.2-0.2-0.2-0.3
		c-0.1-0.1-0.1-0.3-0.1-0.5c0-0.3,0.1-0.5,0.2-0.7c0.1-0.2,0.2-0.4,0.4-0.5c0.2-0.1,0.4-0.2,0.6-0.3s0.5-0.1,0.7-0.1
		c0.1,0,0.3,0,0.4,0s0.3,0,0.4,0.1c0.1,0,0.3,0.1,0.4,0.1s0.2,0.1,0.3,0.1l-0.1,0.7c-0.2-0.1-0.4-0.2-0.7-0.2s-0.5-0.1-0.7-0.1
		c-0.2,0-0.3,0-0.5,0.1s-0.2,0.1-0.3,0.2c-0.1,0.1-0.2,0.2-0.2,0.2S222,34.9,222,35z"/>
	<path fill="#99999A" d="M225.6,37.6h0.9l-1.3,3.3h-0.8L225.6,37.6z"/>
	<path fill="#99999A" d="M231.3,38h3.4l-0.2,0.8h-4.3l1.5-7.2h0.9L231.3,38z"/>
	<path fill="#99999A" d="M236.8,38h3.4l-0.2,0.8h-4.3l1.5-7.2h0.9L236.8,38z"/>
	<path fill="#99999A" d="M245.3,32.2c-0.3,0-0.6,0-0.9,0.2c-0.3,0.1-0.5,0.2-0.8,0.4c-0.2,0.2-0.4,0.4-0.6,0.6
		c-0.2,0.2-0.3,0.5-0.5,0.8c-0.1,0.3-0.2,0.6-0.3,0.9c-0.1,0.3-0.1,0.6-0.1,1c0,0.4,0.1,0.8,0.2,1c0.1,0.3,0.3,0.5,0.5,0.6
		s0.4,0.3,0.7,0.3c0.3,0.1,0.5,0.1,0.8,0.1c0.3,0,0.6,0,0.8-0.1c0.3-0.1,0.5-0.1,0.7-0.2l-0.2,0.8c-0.2,0.1-0.5,0.1-0.7,0.2
		s-0.5,0.1-0.8,0.1c-0.4,0-0.8-0.1-1.1-0.2s-0.7-0.3-0.9-0.5s-0.5-0.5-0.6-0.9c-0.1-0.4-0.2-0.8-0.2-1.3c0-0.4,0-0.7,0.1-1.1
		c0.1-0.4,0.2-0.7,0.3-1.1s0.3-0.7,0.6-1s0.5-0.6,0.8-0.8c0.3-0.2,0.6-0.4,1-0.5s0.8-0.2,1.3-0.2c0.3,0,0.6,0,0.8,0.1
		c0.3,0.1,0.5,0.1,0.7,0.2l-0.2,0.8c-0.2-0.1-0.4-0.1-0.6-0.2S245.6,32.2,245.3,32.2z"/>
	<path fill="#99999A" d="M247.2,38.8l0.2-1h1l-0.2,1H247.2z"/>
</g>
</svg>
